<svg width="16" height="16" viewBox="0 0 16 16" fill="none" xmlns="http://www.w3.org/2000/svg">
<path d="M10.97 4.96999C11.1108 4.83588 11.2983 4.76173 11.4928 4.76321C11.6873 4.76468 11.8736 4.84165 12.0124 4.97787C12.1512 5.1141 12.2317 5.29893 12.2369 5.49336C12.242 5.68779 12.1714 5.87661 12.04 6.01999L8.04997 11.01C7.98137 11.0839 7.89856 11.1432 7.80651 11.1844C7.71445 11.2255 7.61505 11.2477 7.51423 11.2496C7.41341 11.2514 7.31324 11.2329 7.21973 11.1952C7.12622 11.1575 7.04127 11.1013 6.96997 11.03L4.32397 8.38399C4.25029 8.31532 4.19119 8.23252 4.15019 8.14052C4.1092 8.04853 4.08716 7.94921 4.08538 7.84851C4.08361 7.74781 4.10213 7.64778 4.13985 7.55439C4.17757 7.461 4.23372 7.37617 4.30494 7.30495C4.37616 7.23373 4.46099 7.17758 4.55438 7.13986C4.64777 7.10214 4.74779 7.08362 4.8485 7.08539C4.9492 7.08717 5.04851 7.10921 5.14051 7.15021C5.23251 7.1912 5.31531 7.2503 5.38397 7.32399L7.47797 9.41699L10.951 4.99199C10.9572 4.98429 10.9639 4.97694 10.971 4.96999H10.97Z" fill="white"/>
</svg>
