<svg width="260" height="199" viewBox="0 0 260 199" fill="none" xmlns="http://www.w3.org/2000/svg">
<path d="M95.3681 126.43C94.4135 126.43 93.6352 127.207 93.6352 128.163C93.6352 129.119 94.4135 129.896 95.3681 129.896C96.3239 129.896 97.101 129.119 97.101 128.163C97.101 127.207 96.3239 126.43 95.3681 126.43ZM95.3681 130.072C94.3156 130.072 93.4589 129.215 93.4589 128.163C93.4589 127.11 94.3156 126.254 95.3681 126.254C96.4206 126.254 97.2772 127.11 97.2772 128.163C97.2772 129.215 96.4206 130.072 95.3681 130.072Z" fill="#464648"/>
<path d="M118.852 138.732C118.852 139.346 118.355 139.844 117.741 139.844C117.127 139.844 116.629 139.346 116.629 138.732C116.629 138.118 117.127 137.62 117.741 137.62C118.355 137.62 118.852 138.118 118.852 138.732Z" fill="#867EB2"/>
<path d="M257.023 141.656L28.322 107.046L28.3729 106.709L257.074 141.32L257.023 141.656Z" stroke="#2E2D2D" stroke-width="4.28264" stroke-miterlimit="10"/>
<path d="M222.29 190.268L228.69 186.024L228.258 185.882L221.848 190.132L222.29 190.268Z" fill="#E4521D"/>
<path d="M169.654 182.312L163.253 178.066L163.685 177.924L170.095 182.176L169.654 182.312Z" fill="#E4521D"/>
<path d="M72.3058 111.163C72.2276 111.163 72.1572 111.108 72.1399 111.028L71.2584 106.969C71.2385 106.877 71.2967 106.786 71.3883 106.767C71.4801 106.746 71.5704 106.806 71.5903 106.897L72.4718 110.956C72.4918 111.048 72.4335 111.138 72.342 111.158C72.3298 111.161 72.3176 111.163 72.3058 111.163" fill="#2E2D2D"/>
<path d="M71.1479 105.831C71.0699 105.831 70.9995 105.775 70.9821 105.696L70.5311 103.619C70.5112 103.527 70.5693 103.437 70.661 103.417C70.7527 103.396 70.8431 103.456 70.863 103.547L71.3141 105.624C71.3341 105.716 71.2758 105.806 71.1842 105.827C71.1721 105.829 71.1599 105.831 71.1479 105.831" fill="#2E2D2D"/>
<path d="M70.4015 102.443C70.3235 102.443 70.2533 102.389 70.2358 102.31L66.2632 84.3305C66.243 84.2388 66.3009 84.1482 66.3924 84.1286C66.483 84.1078 66.5746 84.1653 66.5948 84.2571L70.5675 102.236C70.5876 102.328 70.5298 102.419 70.4382 102.439C70.426 102.442 70.4136 102.443 70.4015 102.443Z" fill="#2E2D2D"/>
<path d="M98.7593 79.4513C98.7556 79.4513 98.7519 79.4513 98.7482 79.4513L94.602 79.1955C94.509 79.1894 94.438 79.1099 94.4429 79.0156C94.449 78.9226 94.5261 78.8492 94.6228 78.8565L98.769 79.1123C98.8633 79.1184 98.9343 79.198 98.9281 79.2922C98.9233 79.3828 98.8486 79.4513 98.7593 79.4513" fill="#2E2D2D"/>
<path d="M93.3133 79.116C93.3096 79.116 93.306 79.116 93.3023 79.116L91.1814 78.985C91.0884 78.9789 91.0162 78.8981 91.0223 78.8051C91.0285 78.7109 91.1068 78.6375 91.2022 78.646L93.3231 78.777C93.4173 78.7819 93.4883 78.8626 93.4822 78.9569C93.4773 79.0462 93.4027 79.116 93.3133 79.116" fill="#2E2D2D"/>
<path d="M89.8511 78.9128C89.8474 78.9128 89.8438 78.9128 89.8413 78.9128L71.4588 77.8481C71.3651 77.842 71.2936 77.7625 71.2991 77.6682C71.3046 77.5752 71.3877 77.503 71.4785 77.5091L89.8609 78.5738C89.9539 78.58 90.0261 78.6595 90.02 78.7537C90.0151 78.8431 89.9404 78.9128 89.8511 78.9128" fill="#2E2D2D"/>
<path d="M220.414 198.225L161.646 192.377L162.407 184.734L221.174 190.582L220.414 198.225" fill="#867EB2"/>
<path d="M236.489 180.586L235.928 181.974C235.177 183.839 235.17 185.921 235.913 187.791L220.448 198.013L221.195 190.397L236.489 180.586Z" fill="#F5F6F5"/>
<path d="M221.248 190.429L220.517 197.901L235.844 187.769C235.109 185.889 235.12 183.825 235.877 181.953L236.37 180.729L221.248 190.429ZM220.381 198.126L221.141 190.364L221.164 190.35L236.607 180.443L235.981 181.995C235.23 183.855 235.226 185.905 235.966 187.77L235.983 187.813L235.945 187.837L220.381 198.126" fill="#464648"/>
<path d="M221.174 190.582L220.414 198.225L220.792 197.976L221.558 190.325L221.174 190.582Z" fill="#7974A9"/>
<path d="M236.568 180.385L236.661 180.324L185.796 175.261L162.407 184.734L221.174 190.582L236.568 180.385Z" fill="#B0AED5"/>
<path d="M221.125 191.077L236.618 180.752L236.661 180.324L221.174 190.582L221.125 191.077" fill="#7974A9"/>
<path d="M220.414 198.225L236.043 187.969L235.906 187.606L220.454 197.815L220.414 198.225Z" fill="#7974A9"/>
<path d="M230.682 186.158L230.619 186.064L234.504 183.475L234.566 183.57L230.682 186.158Z" fill="#2E2D2D"/>
<path d="M225.721 189.462L225.659 189.368L230.204 186.339L230.267 186.433L225.721 189.462Z" fill="#2E2D2D"/>
<path d="M222.623 191.527L222.56 191.433L225.063 189.766L225.125 189.859L222.623 191.527" fill="#2E2D2D"/>
<path d="M229.108 189.03L229.044 188.936L233.972 185.654L234.035 185.748L229.108 189.03Z" fill="#2E2D2D"/>
<path d="M222.092 193.704L222.028 193.61L228.285 189.442L228.348 189.536L222.092 193.704" fill="#2E2D2D"/>
<path d="M233.517 187.711L233.455 187.617L234.972 186.605L235.035 186.699L233.517 187.711Z" fill="#2E2D2D"/>
<path d="M223.382 194.463L223.319 194.369L232.963 187.944L233.025 188.038L223.382 194.463" fill="#2E2D2D"/>
<path d="M175.084 182.365C174.997 182.365 174.923 182.301 174.915 182.213C174.905 182.119 174.973 182.036 175.067 182.026L178.764 181.652C178.857 181.645 178.94 181.711 178.95 181.804C178.958 181.897 178.891 181.98 178.798 181.99L175.101 182.364C175.095 182.365 175.089 182.365 175.084 182.365Z" fill="#2E2D2D"/>
<path d="M180.187 181.848C180.101 181.848 180.028 181.783 180.018 181.695C180.01 181.602 180.077 181.519 180.171 181.509L189.352 180.577L209.232 178.6C209.324 178.591 209.408 178.659 209.418 178.752C209.426 178.846 209.359 178.929 209.266 178.938L189.386 180.916L180.205 181.848C180.199 181.848 180.193 181.848 180.187 181.848" fill="#2E2D2D"/>
<path d="M155.282 172.536C155.195 172.536 155.122 172.471 155.113 172.383C155.104 172.29 155.172 172.207 155.265 172.198L186.725 169.067C186.815 169.058 186.901 169.126 186.911 169.219C186.919 169.312 186.851 169.395 186.758 169.405L155.298 172.536C155.293 172.536 155.287 172.536 155.282 172.536" fill="#2E2D2D"/>
<path d="M229.274 176.855H229.275H229.274ZM219.825 177.913C219.738 177.913 219.665 177.848 219.656 177.76C219.646 177.667 219.715 177.584 219.808 177.574L228.835 176.676L212.136 169.913C212.049 169.878 212.006 169.779 212.042 169.692C212.077 169.605 212.176 169.563 212.263 169.599L229.401 176.539C229.497 176.578 229.553 176.676 229.538 176.778C229.524 176.879 229.442 176.957 229.34 176.967L219.842 177.912C219.836 177.913 219.83 177.913 219.825 177.913" fill="#2E2D2D"/>
<path d="M155.517 150.508L189.296 145.414L190.43 141.213L126.34 130.739L127.157 145.401L155.517 150.508" fill="#CCCCC9"/>
<path d="M155.063 148.84L189.58 144.362L189.296 145.414L155.454 150.452L155.063 148.84Z" fill="#CCCCC9"/>
<path d="M108.14 54.7828H71.1481V3.99822H108.14V54.7828" fill="#E9E8E7"/>
<path d="M112.218 9.1664L108.504 12.1305L97.4498 3.11954L99.9916 3.14691e-05L112.218 9.1664" fill="#E79FA8"/>
<path d="M69.4191 45.8221L67.1812 50.0124L78.0547 59.2424L80.6578 56.1743L69.4191 45.8221Z" fill="#FABCC2"/>
<path d="M104.834 12.3275H75.5527C75.4441 12.3275 75.3561 12.2394 75.3561 12.1305C75.3561 12.0228 75.4441 11.9335 75.5527 11.9335H104.834C104.943 11.9335 105.03 12.0228 105.03 12.1305C105.03 12.2394 104.943 12.3275 104.834 12.3275Z" fill="#2E2D2D"/>
<path d="M104.834 26.2667H75.5527C75.4441 26.2667 75.3561 26.1786 75.3561 26.0697C75.3561 25.962 75.4441 25.8739 75.5527 25.8739H104.834C104.943 25.8739 105.03 25.962 105.03 26.0697C105.03 26.1786 104.943 26.2667 104.834 26.2667Z" fill="#2E2D2D"/>
<path d="M104.834 43.1934H75.5527C75.4441 43.1934 75.3561 43.1052 75.3561 42.9963C75.3561 42.8874 75.4441 42.7993 75.5527 42.7993H104.834C104.943 42.7993 105.03 42.8874 105.03 42.9963C105.03 43.1052 104.943 43.1934 104.834 43.1934Z" fill="#2E2D2D"/>
<path d="M104.834 14.9685H95.3913C95.2824 14.9685 95.1955 14.8804 95.1955 14.7727C95.1955 14.6638 95.2824 14.5756 95.3913 14.5756H104.834C104.943 14.5756 105.03 14.6638 105.03 14.7727C105.03 14.8804 104.943 14.9685 104.834 14.9685Z" fill="#2E2D2D"/>
<path d="M87.0058 14.9685H75.5527C75.4441 14.9685 75.3561 14.8804 75.3561 14.7727C75.3561 14.6638 75.4441 14.5756 75.5527 14.5756H87.0058C87.1147 14.5756 87.2016 14.6638 87.2016 14.7727C87.2016 14.8804 87.1147 14.9685 87.0058 14.9685Z" fill="#2E2D2D"/>
<path d="M104.834 17.7062H101.739C101.63 17.7062 101.542 17.6181 101.542 17.5091C101.542 17.4015 101.63 17.3133 101.739 17.3133H104.834C104.943 17.3133 105.03 17.4015 105.03 17.5091C105.03 17.6181 104.943 17.7062 104.834 17.7062Z" fill="#2E2D2D"/>
<path d="M96.4401 17.7062H75.5527C75.4441 17.7062 75.3561 17.6181 75.3561 17.5091C75.3561 17.4015 75.4441 17.3133 75.5527 17.3133H96.4401C96.5478 17.3133 96.636 17.4015 96.636 17.5091C96.636 17.6181 96.5478 17.7062 96.4401 17.7062Z" fill="#2E2D2D"/>
<path d="M104.834 34.7159H101.739C101.63 34.7159 101.542 34.6278 101.542 34.5189C101.542 34.4112 101.63 34.3231 101.739 34.3231H104.834C104.943 34.3231 105.03 34.4112 105.03 34.5189C105.03 34.6278 104.943 34.7159 104.834 34.7159Z" fill="#2E2D2D"/>
<path d="M96.4401 34.7159H75.5527C75.4441 34.7159 75.3561 34.6278 75.3561 34.5189C75.3561 34.4112 75.4441 34.3231 75.5527 34.3231H96.4401C96.5478 34.3231 96.636 34.4112 96.636 34.5189C96.636 34.6278 96.5478 34.7159 96.4401 34.7159Z" fill="#2E2D2D"/>
<path d="M104.834 46.0178H101.739C101.63 46.0178 101.542 45.9297 101.542 45.822C101.542 45.7131 101.63 45.625 101.739 45.625H104.834C104.943 45.625 105.03 45.7131 105.03 45.822C105.03 45.9297 104.943 46.0178 104.834 46.0178Z" fill="#2E2D2D"/>
<path d="M96.4401 46.0178H75.5527C75.4441 46.0178 75.3561 45.9297 75.3561 45.822C75.3561 45.7131 75.4441 45.625 75.5527 45.625H96.4401C96.5478 45.625 96.636 45.7131 96.636 45.822C96.636 45.9297 96.5478 46.0178 96.4401 46.0178Z" fill="#2E2D2D"/>
<path d="M78.6471 23.4128H75.5527C75.4441 23.4128 75.3561 23.3247 75.3561 23.217C75.3561 23.1081 75.4441 23.02 75.5527 23.02H78.6471C78.756 23.02 78.8441 23.1081 78.8441 23.217C78.8441 23.3247 78.756 23.4128 78.6471 23.4128Z" fill="#2E2D2D"/>
<path d="M104.834 23.4128H83.9475C83.8385 23.4128 83.7504 23.3247 83.7504 23.217C83.7504 23.1081 83.8385 23.02 83.9475 23.02H104.834C104.943 23.02 105.03 23.1081 105.03 23.217C105.03 23.3247 104.943 23.4128 104.834 23.4128Z" fill="#2E2D2D"/>
<path d="M78.6471 31.9734H75.5527C75.4441 31.9734 75.3561 31.8853 75.3561 31.7776C75.3561 31.6687 75.4441 31.5805 75.5527 31.5805H78.6471C78.756 31.5805 78.8441 31.6687 78.8441 31.7776C78.8441 31.8853 78.756 31.9734 78.6471 31.9734Z" fill="#2E2D2D"/>
<path d="M104.834 31.9734H83.9475C83.8385 31.9734 83.7504 31.8853 83.7504 31.7776C83.7504 31.6687 83.8385 31.5805 83.9475 31.5805H104.834C104.943 31.5805 105.03 31.6687 105.03 31.7776C105.03 31.8853 104.943 31.9734 104.834 31.9734Z" fill="#2E2D2D"/>
<path d="M78.6471 40.3663H75.5527C75.4441 40.3663 75.3561 40.2794 75.3561 40.1705C75.3561 40.0616 75.4441 39.9735 75.5527 39.9735H78.6471C78.756 39.9735 78.8441 40.0616 78.8441 40.1705C78.8441 40.2794 78.756 40.3663 78.6471 40.3663Z" fill="#2E2D2D"/>
<path d="M104.834 40.3663H83.9475C83.8385 40.3663 83.7504 40.2794 83.7504 40.1705C83.7504 40.0616 83.8385 39.9735 83.9475 39.9735H104.834C104.943 39.9735 105.03 40.0616 105.03 40.1705C105.03 40.2794 104.943 40.3663 104.834 40.3663Z" fill="#2E2D2D"/>
<path d="M104.834 20.5601H90.1938C90.0849 20.5601 89.9968 20.4719 89.9968 20.363C89.9968 20.2541 90.0849 20.166 90.1938 20.166H104.834C104.943 20.166 105.03 20.2541 105.03 20.363C105.03 20.4719 104.943 20.5601 104.834 20.5601Z" fill="#2E2D2D"/>
<path d="M85.0256 20.5601H75.5527C75.4441 20.5601 75.3561 20.4719 75.3561 20.363C75.3561 20.2541 75.4441 20.166 75.5527 20.166H85.0256C85.1345 20.166 85.2227 20.2541 85.2227 20.363C85.2227 20.4719 85.1345 20.5601 85.0256 20.5601Z" fill="#2E2D2D"/>
<path d="M90.1938 29.1206H75.5527C75.4441 29.1206 75.3561 29.0325 75.3561 28.9236C75.3561 28.8147 75.4441 28.7265 75.5527 28.7265H90.1938C90.3015 28.7265 90.3896 28.8147 90.3896 28.9236C90.3896 29.0325 90.3015 29.1206 90.1938 29.1206Z" fill="#2E2D2D"/>
<path d="M104.834 29.1206H95.3607C95.253 29.1206 95.1649 29.0325 95.1649 28.9236C95.1649 28.8147 95.253 28.7265 95.3607 28.7265H104.834C104.943 28.7265 105.03 28.8147 105.03 28.9236C105.03 29.0325 104.943 29.1206 104.834 29.1206Z" fill="#2E2D2D"/>
<path d="M90.1938 37.4573H75.5527C75.4441 37.4573 75.3561 37.3692 75.3561 37.2615C75.3561 37.1525 75.4441 37.0644 75.5527 37.0644H90.1938C90.3015 37.0644 90.3896 37.1525 90.3896 37.2615C90.3896 37.3692 90.3015 37.4573 90.1938 37.4573Z" fill="#2E2D2D"/>
<path d="M104.834 37.4573H95.3607C95.253 37.4573 95.1649 37.3692 95.1649 37.2615C95.1649 37.1525 95.253 37.0644 95.3607 37.0644H104.834C104.943 37.0644 105.03 37.1525 105.03 37.2615C105.03 37.3692 104.943 37.4573 104.834 37.4573Z" fill="#2E2D2D"/>
<path d="M90.1938 48.8436H75.5527C75.4441 48.8436 75.3561 48.7555 75.3561 48.6478C75.3561 48.5389 75.4441 48.4508 75.5527 48.4508H90.1938C90.3015 48.4508 90.3896 48.5389 90.3896 48.6478C90.3896 48.7555 90.3015 48.8436 90.1938 48.8436Z" fill="#2E2D2D"/>
<path d="M104.834 48.8436H95.3607C95.253 48.8436 95.1649 48.7555 95.1649 48.6478C95.1649 48.5389 95.253 48.4508 95.3607 48.4508H104.834C104.943 48.4508 105.03 48.5389 105.03 48.6478C105.03 48.7555 104.943 48.8436 104.834 48.8436Z" fill="#2E2D2D"/>
<path d="M108.14 19.198C108.14 19.198 109.077 48.5231 117.347 57.5511C117.347 57.5511 105.408 56.4693 91.3148 54.7829H108.14V19.198" fill="#CCCCC9"/>
<path d="M214.204 135.32L224.594 104.047L205.311 63.4694L185.594 62.7743L179.874 64.0422C170.683 66.0786 164.287 73.6883 159.512 81.3102C153.141 91.4801 147.123 101.896 141.009 112.223C139.915 114.069 131.08 131.072 130.063 130.867C130.063 130.867 156.234 136.138 167.65 114.943L168.519 123.516L168.982 128.16L214.204 135.32" fill="#8AA7FF"/>
<path d="M167.185 104.78C167.185 104.78 164.736 117.921 161.188 123.229C161.188 123.229 165.523 119.371 167.445 115.321L167.185 104.78Z" fill="#3E6CF7"/>
<path d="M177.687 124.216L169.107 126.337C168.492 126.337 167.882 126.24 167.298 126.053L164.224 124.251C163.524 123.841 162.75 123.556 161.944 123.473C160.446 123.32 158.924 123.635 157.597 124.395L150.293 128.666L150.818 132.068C150.541 133.045 150.649 134.091 151.121 134.99C151.459 135.637 152.127 136.042 152.858 136.045L178.93 136.073C180.639 136.08 182.429 134.913 182.719 133.229C183.177 130.579 186.394 125.948 181.716 124.371C181.204 124.199 178.226 124.216 177.687 124.216" fill="#F5A180"/>
<path d="M184.311 55.839C184.309 55.839 184.306 55.8402 184.304 55.8402L174.298 25.0919L166.091 26.1982L162.62 40.753L170.615 56.7055C169.949 57.5205 169.55 58.551 169.55 59.672C169.55 62.3179 171.767 64.4632 174.501 64.4632C175.126 64.4632 175.724 64.3494 176.274 64.145C177.115 65.632 178.747 66.6404 180.62 66.6404C181.897 66.6404 183.059 66.1729 183.937 65.4055C184.06 65.4153 184.185 65.4215 184.311 65.4215C187.045 65.4215 189.262 63.2761 189.262 60.6302C189.262 57.9843 187.045 55.839 184.311 55.839" fill="#373750"/>
<path d="M184.239 60.6278C184.239 60.6278 191.008 67.2192 205.335 48.7152C205.335 48.7152 217.653 32.4274 205.856 14.2367C205.511 13.7043 205.035 13.2723 204.471 12.9884C204.428 12.9663 204.383 12.9443 204.338 12.9223C189.246 5.46191 171.708 16.9266 172.206 33.874C172.432 41.5424 175.013 51.3978 184.239 60.6278" fill="#F5A180"/>
<path d="M184.527 51.2888C183.639 51.2888 183.058 50.967 182.862 50.5815C182.66 50.1874 182.637 49.6844 182.801 49.2708C184.227 45.6678 183.003 44.0646 182.991 44.0487C182.932 43.9753 182.944 43.8688 183.018 43.8101C183.09 43.7526 183.196 43.7636 183.255 43.8358C183.311 43.9055 184.623 45.5895 183.117 49.3956C182.989 49.7162 183.009 50.1213 183.165 50.4273C183.395 50.8788 184.672 51.3341 186.715 50.3991C186.8 50.36 186.901 50.3979 186.94 50.4836C186.979 50.568 186.941 50.6696 186.857 50.7087C185.944 51.1261 185.158 51.2888 184.527 51.2888" fill="#2E2D2D"/>
<path d="M200.621 5.78378C199.28 5.78378 198.118 6.567 197.547 7.70882C197.115 7.51056 196.636 7.39797 196.131 7.39797C194.604 7.39797 193.309 8.41253 192.855 9.81746C192.35 9.52252 191.765 9.35241 191.143 9.35241C190.244 9.35241 189.428 9.70243 188.814 10.2764C188.201 9.70243 187.383 9.35241 186.486 9.35241C184.795 9.35241 183.388 10.5946 183.094 12.2345C182.228 11.0523 180.848 10.2862 179.292 10.2862C176.675 10.2862 174.553 12.4548 174.553 15.1288C174.553 15.4189 174.579 15.7028 174.627 15.9794C174.616 15.9794 174.605 15.9781 174.594 15.9781C173.409 15.9781 172.364 16.5888 171.743 17.5189C171.218 17.1885 170.6 16.9976 169.938 16.9976C168.032 16.9976 166.488 18.5763 166.488 20.5234C166.488 21.3617 166.775 22.1327 167.254 22.7373C166.1 23.0701 165.192 23.999 164.87 25.1788C163.158 25.3868 161.831 26.8738 161.831 28.6789C161.831 28.9677 161.865 29.2492 161.93 29.5184C161.267 30.2882 160.84 31.2758 160.764 32.3626C159.359 32.808 158.338 34.1469 158.338 35.7293C158.338 37.2774 159.316 38.5918 160.674 39.0654C160.509 39.4778 160.417 39.9282 160.417 40.4018C160.417 41.1116 160.623 41.7712 160.977 42.3244C160.619 43.0048 160.417 43.7807 160.417 44.6068C160.417 46.3801 161.351 47.9295 162.743 48.7739C162.17 49.5694 161.831 50.5509 161.831 51.6144C161.831 53.4232 162.81 54.997 164.255 55.8157C164.247 55.9149 164.242 56.0152 164.242 56.1168C164.242 58.0639 165.788 59.6426 167.693 59.6426C167.888 59.6426 168.08 59.6255 168.266 59.5937C168.524 60.0563 168.856 60.4711 169.244 60.8211C168.918 61.4747 168.732 62.2138 168.732 62.9983C168.732 65.6491 170.836 67.7981 173.43 67.7981C176.025 67.7981 178.129 65.6491 178.129 62.9983C178.129 61.564 177.512 60.2778 176.536 59.3978C176.863 58.7443 177.048 58.0051 177.048 57.2219C177.048 54.5711 174.944 52.4221 172.35 52.4221C171.927 52.4221 171.52 52.4796 171.131 52.5861C171.194 52.2728 171.227 51.9473 171.227 51.6144C171.227 49.8704 170.317 48.3443 168.955 47.5036C169.546 46.6959 169.897 45.6936 169.897 44.6068C169.897 42.727 168.848 41.0994 167.316 40.2966C167.283 39.1596 166.725 38.1585 165.879 37.5381C168.315 37.3349 170.229 35.2532 170.229 32.7138C170.229 31.4998 169.791 30.3898 169.067 29.5404C170.549 29.1439 171.642 27.7672 171.642 26.1297C171.642 25.2914 171.356 24.5204 170.876 23.9158C171.666 23.6882 172.339 23.1827 172.79 22.5084C173.315 22.8388 173.933 23.0298 174.594 23.0298C176.404 23.0298 177.887 21.6065 178.033 19.7964C178.434 19.909 178.857 19.9714 179.292 19.9714C181.838 19.9714 183.913 17.9216 184.027 15.3515C184.653 16.0002 185.523 16.4028 186.486 16.4028C187.383 16.4028 188.201 16.0528 188.814 15.48C189.428 16.0528 190.244 16.4028 191.143 16.4028C192.67 16.4028 193.965 15.3883 194.419 13.9846C194.923 14.2795 195.508 14.4496 196.131 14.4496C197.473 14.4496 198.635 13.6663 199.205 12.5245C199.638 12.724 200.117 12.8354 200.621 12.8354C202.528 12.8354 204.072 11.2567 204.072 9.30958C204.072 7.36249 202.528 5.78378 200.621 5.78378" fill="#373750"/>
<path d="M190.531 42.1616C190.462 42.7502 189.929 43.1724 189.34 43.1039C188.751 43.0342 188.329 42.5018 188.398 41.9131C188.466 41.3245 189 40.9023 189.588 40.9708C190.177 41.0393 190.599 41.5729 190.531 42.1616Z" fill="#2E2D2D"/>
<path d="M179.486 43.5813C179.417 44.1699 178.885 44.5921 178.296 44.5236C177.706 44.4538 177.285 43.9215 177.354 43.3328C177.422 42.7442 177.956 42.322 178.545 42.3905C179.133 42.459 179.554 42.9926 179.486 43.5813Z" fill="#2E2D2D"/>
<path d="M186.656 42.3832C186.656 42.3832 188.385 40.135 192.868 41.8386C192.868 41.8386 189.509 38.7521 186.656 42.3832Z" fill="#2E2D2D"/>
<path d="M175.385 43.6106C175.385 43.6106 176.842 41.6011 181.456 43.1015C181.456 43.1015 177.299 40.343 175.385 43.6106Z" fill="#2E2D2D"/>
<path d="M188.932 54.871C188.98 55.5674 187.743 57.4398 186.179 57.5463C184.613 57.6528 183.113 56.0275 183.065 55.3312C183.018 54.6336 184.248 53.9825 185.813 53.8761C187.377 53.7696 188.886 54.1734 188.932 54.871Z" fill="#CC6442"/>
<path d="M185.5 55.8757C184.245 55.8757 182.996 55.4706 182.05 54.7376C181.976 54.6801 181.963 54.5736 182.019 54.4989C182.077 54.4255 182.184 54.412 182.258 54.4696C183.317 55.2907 184.786 55.6726 186.187 55.4914C187.466 55.3275 188.574 54.7107 189.307 53.7561C189.364 53.6814 189.471 53.6667 189.545 53.7243C189.62 53.7818 189.634 53.8882 189.576 53.9629C188.788 54.9897 187.6 55.6518 186.23 55.8292C185.988 55.8598 185.743 55.8757 185.5 55.8757" fill="#2E2D2D"/>
<path d="M172.614 15.9207C172.762 15.9207 172.762 15.6906 172.614 15.6906C172.466 15.6906 172.466 15.9207 172.614 15.9207Z" fill="#252D33"/>
<path d="M162.562 23.4679C162.358 23.4679 162.159 23.5144 162.028 23.6588C161.944 23.7518 161.903 23.8901 161.918 24.0357C161.933 24.1838 162.004 24.3184 162.106 24.3955C162.207 24.4701 162.345 24.4983 162.484 24.475C162.631 24.4493 162.759 24.3698 162.834 24.2572C162.989 24.0259 162.928 23.6563 162.705 23.4825C162.701 23.4801 162.696 23.4764 162.693 23.474C162.648 23.4691 162.606 23.4679 162.562 23.4679V23.4679ZM165.561 25.2607C165.507 25.2607 165.453 25.235 165.42 25.1873C164.888 24.4028 164.083 23.8252 163.183 23.5719C163.302 23.8521 163.289 24.1899 163.117 24.4457C162.99 24.6354 162.781 24.7675 162.543 24.8091C162.312 24.8495 162.079 24.7981 161.904 24.6684C161.722 24.5338 161.605 24.3159 161.58 24.07C161.556 23.8276 161.627 23.5951 161.776 23.4311C161.825 23.3773 161.879 23.3308 161.94 23.2916C161.195 23.2537 160.437 23.3797 159.741 23.6551C159.654 23.6894 159.555 23.6478 159.52 23.5596C159.486 23.4727 159.529 23.3748 159.616 23.3394C160.402 23.0273 161.262 22.8963 162.104 22.9612C162.332 22.9783 162.589 23.015 162.81 23.1448C162.872 23.1533 162.937 23.1631 163.003 23.1778C164.088 23.4054 165.072 24.0687 165.702 24.9964C165.755 25.0735 165.734 25.1787 165.657 25.2314C165.627 25.2522 165.594 25.2607 165.561 25.2607" fill="#373750"/>
<path d="M185.646 39.8584C185.896 40.2452 187.529 39.1352 189.407 38.9626C191.286 38.7888 192.731 39.5451 192.889 39.107C192.961 38.9014 192.621 38.5612 191.932 38.2834C190.104 37.6189 188.071 37.8294 186.416 38.8537C185.803 39.2686 185.542 39.6712 185.646 39.8584" fill="#252D33"/>
<path d="M174.165 41.2169C174.414 41.6048 176.047 40.4948 177.925 40.3223C179.804 40.1485 181.249 40.9048 181.407 40.4667C181.479 40.2599 181.139 39.9196 180.45 39.643C178.622 38.9785 176.589 39.1878 174.934 40.2133C174.321 40.6282 174.061 41.0308 174.165 41.2169" fill="#252D33"/>
<path d="M210.549 84.2535C210.549 84.2535 205.797 112.576 192.035 119.703L208.008 115.638C208.267 115.572 208.453 115.347 208.467 115.08C208.593 112.69 209.234 100.913 210.549 84.2535Z" fill="#3E6CF7"/>
<path d="M206.887 85.4406L208.445 115.528L177.87 123.305C184.686 127.496 180.919 136.279 180.919 136.279L220.76 136.24C222.252 136.239 223.643 135.444 224.481 134.124C231.34 123.298 234.091 101.209 235.194 84.9719C235.201 84.8568 235.208 84.7418 235.215 84.6268C235.883 72.041 226.004 61.7059 214.238 62.4831L198.176 63.5441L206.887 85.4406" fill="#8AA7FF"/>
<path d="M177.687 124.216C177.687 124.216 181.315 127.743 180.415 135.792L181.104 135.453C181.104 135.453 183.647 128.011 178.701 124.158L177.687 124.216Z" fill="#CF8971"/>
<path d="M168.185 123.395C168.163 123.236 166.056 107.291 167.953 95.0733L168.288 95.1259C166.398 107.293 168.5 123.19 168.522 123.349L168.185 123.395Z" fill="#2E2D2D"/>
<path d="M188.385 62.5798C188.385 65.6834 189.017 68.7551 190.242 71.6066C195.906 83.2745 206.887 62.1833 206.887 62.1833C206.887 62.1833 202.737 50.338 204.466 44.4588C204.466 44.4588 191.497 61.8369 188.385 61.5775V62.5798Z" fill="#F5A180"/>
<path d="M203.539 50.9902C203.539 50.9902 197.837 59.1776 188.385 61.7586C188.385 61.7586 188.291 65.8155 189.156 68.4675C189.156 68.4675 203.055 63.3336 203.539 50.9902Z" fill="#CF8971"/>
<path d="M219.113 13.1609C218.65 13.2148 218.218 13.3739 217.871 13.6321C217.39 13.9882 217.08 14.6711 217.384 15.1178C217.611 15.4519 218.103 15.507 218.448 15.3675C218.781 15.2316 219.037 14.9355 219.167 14.5353C219.309 14.0984 219.284 13.5868 219.113 13.1609V13.1609ZM218.068 15.7811C217.679 15.7811 217.309 15.611 217.103 15.3087C216.675 14.6809 217.063 13.8084 217.669 13.3592C218.036 13.0863 218.474 12.9101 218.943 12.8366C218.494 12.1525 217.703 11.674 216.458 11.3313C214.132 10.6913 211.949 10.8516 210.312 11.7829C210.23 11.8294 210.128 11.8013 210.081 11.7193C210.035 11.6373 210.063 11.5345 210.145 11.488C211.859 10.5114 214.134 10.3401 216.549 11.0034C217.404 11.2396 218.617 11.6716 219.262 12.7045C219.282 12.7351 219.3 12.7669 219.317 12.7999C219.717 12.7816 220.133 12.8366 220.542 12.9651C221.387 13.2307 222.193 13.7937 222.938 14.6356C223 14.7066 222.994 14.8131 222.924 14.8755C222.853 14.9379 222.745 14.9318 222.684 14.8608C221.98 14.0653 221.225 13.5367 220.441 13.2894C220.12 13.1891 219.791 13.1402 219.47 13.1402C219.469 13.1402 219.469 13.1402 219.469 13.1402C219.634 13.6162 219.645 14.1571 219.49 14.6405C219.328 15.1374 219.004 15.507 218.576 15.682C218.41 15.7493 218.238 15.7811 218.068 15.7811" fill="#373750"/>
<path d="M227.433 44.7672C227.148 44.7672 226.874 44.9092 226.758 45.1319C226.687 45.2677 226.685 45.4489 226.753 45.6043C226.811 45.7352 226.91 45.8283 227.025 45.8588C227.249 45.92 227.528 45.7536 227.621 45.5064C227.702 45.2898 227.666 45.0156 227.526 44.7721C227.496 44.7696 227.465 44.7672 227.433 44.7672ZM229.076 46.5479C229.006 46.5479 228.941 46.5038 228.917 46.4353C228.787 46.0767 228.654 45.7071 228.437 45.3938C228.299 45.1931 228.135 45.034 227.959 44.9263C228.025 45.1662 228.02 45.4097 227.939 45.6263C227.782 46.0412 227.334 46.2933 226.938 46.1868C226.721 46.1293 226.541 45.9665 226.442 45.7414C226.331 45.4892 226.337 45.2016 226.457 44.974C226.609 44.6852 226.915 44.4906 227.256 44.4404C227.103 44.2985 226.932 44.1847 226.784 44.0953C225.835 43.5214 224.702 43.2362 223.597 43.2913C223.505 43.2937 223.423 43.224 223.418 43.1297C223.414 43.0367 223.487 42.9572 223.58 42.9523C224.752 42.8935 225.954 43.1958 226.959 43.8053C227.206 43.9546 227.512 44.1626 227.732 44.4661C228.105 44.5591 228.453 44.8186 228.717 45.2004C228.958 45.5504 229.106 45.9592 229.236 46.3202C229.268 46.4083 229.221 46.505 229.133 46.5368C229.115 46.5442 229.095 46.5479 229.076 46.5479" fill="#373750"/>
<path d="M198.753 56.0349C198.593 56.5917 198.506 57.1816 198.506 57.7923C198.506 61.2006 201.179 63.9627 204.476 63.9627C205.396 63.9627 206.266 63.7473 207.044 63.3643C207.897 64.1353 209.011 64.604 210.234 64.604C212.524 64.604 214.443 62.9604 214.948 60.7539C214.997 60.7551 215.045 60.7576 215.094 60.7576C217.77 60.7576 219.94 58.5155 219.94 55.7485C219.94 55.5392 219.925 55.3336 219.902 55.1305C221.329 54.3448 222.302 52.7881 222.302 50.994C222.302 50.6868 222.273 50.387 222.218 50.0957C224.126 49.5511 225.528 47.7374 225.528 45.5847C225.528 44.7929 225.338 44.0488 225.004 43.3953C225.642 42.5888 226.024 41.5571 226.024 40.4325C226.024 38.489 224.883 36.8234 223.259 36.1148C223.281 35.9264 223.295 35.733 223.295 35.5372C223.295 35.0146 223.21 34.5129 223.058 34.0441C224.523 33.2707 225.528 31.6932 225.528 29.8709C225.528 27.2862 223.509 25.1911 221.02 25.1911C220.689 25.1911 220.366 25.229 220.055 25.2988C220.064 25.207 220.069 25.1127 220.069 25.0185C220.069 24.4825 219.933 23.9795 219.695 23.5426C220.328 22.9919 220.731 22.1646 220.731 21.2406C220.731 19.5811 219.433 18.2349 217.835 18.2349C217.359 18.2349 216.91 18.3561 216.513 18.5666C216.116 17.6328 215.272 16.9487 214.263 16.8043C214.259 16.77 214.254 16.737 214.249 16.7027C215.544 16.4029 216.512 15.2035 216.512 13.7704C216.512 12.2541 215.429 11.0009 214.024 10.7953C214.187 10.4184 214.279 10.0023 214.279 9.56295C214.279 7.90224 212.983 6.55727 211.383 6.55727C210.424 6.55727 209.573 7.04311 209.046 7.78964C208.455 7.28788 207.7 6.98682 206.876 6.98682C206.696 6.98682 206.52 7.00151 206.347 7.02844C205.845 6.72983 205.263 6.55727 204.642 6.55727C204.241 6.55727 203.857 6.63069 203.498 6.76164L203.573 6.67475H202.69C202.086 6.12159 201.293 5.78383 200.424 5.78383C198.99 5.78383 197.761 6.69801 197.248 7.99525L193.531 9.62782L187.81 10.9716L185.583 9.99251L182.158 12.9223L179.879 13.3103L171.908 18.7318L165.838 24.8827L167.267 26.372L162.62 34.9387L163.843 45.0634L169.277 48.1878C175.497 44.2471 173.447 40.6344 173.447 40.6344C174.757 40.1069 174.845 37.5761 174.845 37.5761C180.259 35.979 181.315 32.0249 181.484 29.9431C182.671 33.5044 185.81 36.05 189.495 36.05C190.203 36.05 190.889 35.9557 191.545 35.7783C191.545 35.7783 193.873 38.1488 196.893 37.9016C196.893 37.9016 195.715 42.9939 199.007 45.1417C199.007 45.1417 197.899 47.6615 199.61 48.9992C199.61 48.9992 196.557 51.6438 198.753 56.0349" fill="#373750"/>
<path d="M221.239 136.468C220.98 136.468 220.804 136.428 220.736 136.41L181.14 136.449C181.035 136.449 180.936 136.398 180.876 136.311C180.815 136.224 180.8 136.113 180.837 136.012C182.036 132.745 182.069 129.8 180.936 127.26C180.029 125.226 178.614 124.045 178.048 123.631C177.946 123.558 177.897 123.434 177.922 123.309C177.945 123.184 178.037 123.088 178.16 123.056L207.899 115.491C208.112 115.438 208.259 115.238 208.248 115.018L206.718 85.4492C206.713 85.3562 206.785 85.2754 206.878 85.2705C206.977 85.2693 207.052 85.3378 207.057 85.432L208.587 114.999C208.606 115.381 208.352 115.726 207.982 115.821L178.275 123.378C178.881 123.823 180.32 125.044 181.247 127.121C182.414 129.74 182.386 132.764 181.164 136.109L220.786 136.07L220.811 136.078C220.837 136.086 223.418 136.81 225.578 131.87L225.584 131.856C225.614 131.802 228.568 126.295 231.099 115.147C231.118 115.057 231.21 114.999 231.302 115.02C231.393 115.041 231.45 115.132 231.429 115.223C228.928 126.241 226.008 131.784 225.887 132.012C224.165 135.947 222.171 136.468 221.239 136.468" fill="#2E2D2D"/>
<path d="M235.019 87.575C235.014 87.575 235.008 87.575 235.002 87.575C234.909 87.5652 234.84 87.4819 234.85 87.3877C235.572 80.2578 233.686 75.2279 231.978 72.2638C230.131 69.0586 228.097 67.5228 228.076 67.5068C228 67.4518 227.985 67.3453 228.041 67.2694C228.097 67.1936 228.203 67.1789 228.279 67.2352C228.365 67.2988 230.39 68.8286 232.272 72.0937C234.005 75.1006 235.918 80.2015 235.188 87.422C235.179 87.5101 235.106 87.575 235.019 87.575" fill="#2E2D2D"/>
<path d="M213.121 118.655C213.061 118.655 213.004 118.624 212.972 118.569C211.24 115.49 208.31 115.795 208.185 115.808L207.855 115.847L208.018 115.557C208.076 115.451 209.538 112.953 214.916 113.258C215.011 113.264 215.082 113.344 215.077 113.438C215.071 113.531 214.993 113.605 214.897 113.597C210.79 113.366 209.055 114.84 208.515 115.46C209.421 115.474 211.792 115.778 213.268 118.402C213.314 118.484 213.285 118.588 213.204 118.633C213.177 118.649 213.149 118.655 213.121 118.655Z" fill="#2E2D2D"/>
<path d="M223.52 23.6612C223.52 25.3917 222.144 26.7942 220.447 26.7942C218.749 26.7942 217.373 25.3917 217.373 23.6612C217.373 21.932 218.749 20.5295 220.447 20.5295C222.144 20.5295 223.52 21.932 223.52 23.6612Z" fill="#373750"/>
<path d="M225.331 34.7685C225.331 36.499 223.955 37.9015 222.258 37.9015C220.561 37.9015 219.185 36.499 219.185 34.7685C219.185 33.0381 220.561 31.6356 222.258 31.6356C223.955 31.6356 225.331 33.0381 225.331 34.7685Z" fill="#373750"/>
<path d="M218.861 18.4184C218.861 20.2418 217.412 21.719 215.623 21.719C213.833 21.719 212.383 20.2418 212.383 18.4184C212.383 16.5949 213.833 15.1165 215.623 15.1165C217.412 15.1165 218.861 16.5949 218.861 18.4184Z" fill="#373750"/>
<path d="M216.52 15.1166C216.52 16.9401 215.069 18.4185 213.28 18.4185C211.492 18.4185 210.042 16.9401 210.042 15.1166C210.042 13.2931 211.492 11.816 213.28 11.816C215.069 11.816 216.52 13.2931 216.52 15.1166Z" fill="#373750"/>
<path d="M196.232 8.4456C196.232 10.2691 194.694 11.7474 192.796 11.7474C190.898 11.7474 189.358 10.2691 189.358 8.4456C189.358 6.62212 190.898 5.14496 192.796 5.14496C194.694 5.14496 196.232 6.62212 196.232 8.4456Z" fill="#373750"/>
<path d="M200.157 8.4456C200.157 10.2691 198.619 11.7474 196.721 11.7474C194.823 11.7474 193.283 10.2691 193.283 8.4456C193.283 6.62212 194.823 5.14496 196.721 5.14496C198.619 5.14496 200.157 6.62212 200.157 8.4456Z" fill="#373750"/>
<path d="M175.633 16.9021C175.633 18.7256 174.095 20.204 172.197 20.204C170.299 20.204 168.759 18.7256 168.759 16.9021C168.759 15.0787 170.299 13.6015 172.197 13.6015C174.095 13.6015 175.633 15.0787 175.633 16.9021Z" fill="#373750"/>
<path d="M193.283 8.85673C193.283 11.0792 191.218 12.8806 188.672 12.8806C186.124 12.8806 184.059 11.0792 184.059 8.85673C184.059 6.63428 186.124 4.83282 188.672 4.83282C191.218 4.83282 193.283 6.63428 193.283 8.85673Z" fill="#373750"/>
<path d="M185.705 9.89091C185.705 11.7144 184.166 13.1927 182.267 13.1927C180.369 13.1927 178.831 11.7144 178.831 9.89091C178.831 8.06865 180.369 6.59027 182.267 6.59027C184.166 6.59027 185.705 8.06865 185.705 9.89091Z" fill="#373750"/>
<path d="M178.18 15.3699C178.18 17.1922 176.642 18.6705 174.743 18.6705C172.845 18.6705 171.306 17.1922 171.306 15.3699C171.306 13.5464 172.845 12.0681 174.743 12.0681C176.642 12.0681 178.18 13.5464 178.18 15.3699Z" fill="#373750"/>
<path d="M211.268 8.35256C211.268 10.176 209.73 11.6532 207.832 11.6532C205.934 11.6532 204.394 10.176 204.394 8.35256C204.394 6.52907 205.934 5.05072 207.832 5.05072C209.73 5.05072 211.268 6.52907 211.268 8.35256Z" fill="#373750"/>
<path d="M207.51 8.4456C207.51 10.2691 205.97 11.7474 204.072 11.7474C202.174 11.7474 200.636 10.2691 200.636 8.4456C200.636 6.62212 202.174 5.14496 204.072 5.14496C205.97 5.14496 207.51 6.62212 207.51 8.4456Z" fill="#373750"/>
<path d="M203.107 7.30007C203.107 9.12233 201.568 10.6007 199.67 10.6007C197.772 10.6007 196.232 9.12233 196.232 7.30007C196.232 5.47658 197.772 3.99823 199.67 3.99823C201.568 3.99823 203.107 5.47658 203.107 7.30007Z" fill="#373750"/>
<path d="M173.091 22.249C173.091 24.7505 171.29 26.7771 169.069 26.7771C166.846 26.7771 165.045 24.7505 165.045 22.249C165.045 19.7487 166.846 17.7209 169.069 17.7209C171.29 17.7209 173.091 19.7487 173.091 22.249Z" fill="#373750"/>
<path d="M165.36 47.9845C165.348 47.9845 165.335 47.9833 165.321 47.9808C164.215 47.7312 163.311 46.8941 162.903 45.7425C162.54 44.7145 162.658 43.64 163.218 42.8298C161.816 41.6978 161.48 39.5659 162.499 38.0838C162.666 37.8415 162.864 37.6127 163.057 37.3899C163.491 36.8894 163.9 36.417 163.937 35.8406C163.973 35.285 163.639 34.7318 163.314 34.1982C162.893 33.5019 162.458 32.7811 162.801 32.0125C163.084 31.3822 163.74 31.1057 164.375 30.8389C164.789 30.6639 165.219 30.484 165.527 30.2086C166.254 29.5624 166.224 28.5723 166.194 27.5235C166.166 26.5543 166.136 25.552 166.713 24.7565C167.55 23.6012 169.129 23.5033 170.655 23.4091C172.184 23.3136 173.63 23.2243 174.32 22.1522C174.57 21.7655 174.658 21.3164 174.752 20.8403C174.822 20.4903 174.893 20.1305 175.034 19.7878C175.552 18.5199 177.014 17.6168 178.753 17.487C180.295 17.3708 181.833 17.8175 183.189 18.2116C183.283 18.2385 183.337 18.3376 183.31 18.4318C183.283 18.5261 183.185 18.5799 183.09 18.553C181.762 18.1663 180.258 17.7294 178.78 17.8407C177.463 17.9399 175.895 18.6215 175.361 19.9224C175.234 20.2321 175.169 20.5613 175.101 20.9088C175.004 21.3971 174.904 21.9001 174.619 22.3444C173.832 23.567 172.227 23.6673 170.677 23.7628C169.165 23.857 167.738 23.9451 167 24.9646C166.495 25.6621 166.522 26.6032 166.549 27.5138C166.581 28.5968 166.612 29.7179 165.763 30.4742C165.409 30.7875 164.954 30.9796 164.512 31.1656C163.915 31.4177 163.351 31.6552 163.126 32.1569C162.858 32.7566 163.227 33.3673 163.619 34.0134C163.97 34.596 164.334 35.1969 164.291 35.8638C164.247 36.559 163.778 37.0999 163.325 37.6225C163.139 37.8366 162.947 38.0594 162.792 38.2845C161.846 39.6613 162.201 41.6611 163.568 42.6511L163.718 42.7588L163.603 42.9044C163.029 43.6326 162.892 44.6484 163.238 45.6238C163.604 46.6603 164.413 47.4118 165.4 47.6345C165.495 47.6565 165.555 47.7508 165.534 47.8462C165.516 47.9294 165.442 47.9845 165.36 47.9845" fill="#444663"/>
<path d="M212.091 31.7617C203.99 5.65651 183.311 13.8549 183.311 13.8549C183.311 13.8549 200.966 9.36712 206.15 30.9222C205.822 30.9858 205.495 31.0678 205.17 31.1694C200.319 32.6857 197.62 37.8649 199.143 42.7356C200.665 47.6076 205.832 50.3282 210.684 48.8119C215.536 47.2956 218.234 42.1176 216.712 37.2456C215.938 34.771 214.225 32.8533 212.091 31.7617" fill="white"/>
<path d="M209.88 35.5322C211.039 36.1013 211.971 37.1244 212.387 38.4534C213.19 41.0247 211.756 43.7599 209.186 44.5639C208.296 44.8417 207.386 44.8515 206.544 44.6398C207.626 45.1709 208.906 45.3068 210.148 44.9188C212.72 44.1148 214.153 41.3796 213.349 38.8083C212.824 37.1268 211.473 35.9324 209.88 35.5322" fill="#F5F6F5"/>
<path d="M214.459 55.7631C214.385 55.7631 214.317 55.7153 214.296 55.6407C214.27 55.5501 214.323 55.4559 214.412 55.4302C215.646 55.0802 217.045 54.6849 218.126 53.8478C219.091 53.1013 219.936 51.7428 219.65 50.3893C219.583 50.065 219.451 49.7443 219.322 49.4335C219.136 48.9795 218.943 48.5107 218.926 47.9992C218.879 46.582 220.07 45.6874 221.22 44.8222C222.339 43.9826 223.394 43.1896 223.418 41.9694C223.434 41.1275 222.907 40.3565 222.396 39.6099C221.792 38.7264 221.166 37.8121 221.418 36.7572C221.522 36.3179 221.773 35.9263 222.016 35.5481C222.342 35.0378 222.652 34.5544 222.555 34.0208C222.44 33.3783 221.824 33.0552 221.17 32.7125C220.588 32.4078 219.985 32.092 219.662 31.5193C219.326 30.9221 219.398 30.2368 219.468 29.5747C219.497 29.3018 219.526 29.0203 219.525 28.7535C219.519 27.1221 218.167 25.6303 216.572 25.4969L216.407 25.4834L216.417 25.3182C216.474 24.3759 215.997 23.4287 215.143 22.7862C214.32 22.1669 213.325 21.9748 212.483 22.2734C212.395 22.3052 212.297 22.2587 212.267 22.1706C212.235 22.0825 212.281 21.9846 212.37 21.954C213.32 21.6162 214.433 21.8267 215.347 22.5145C216.244 23.19 216.764 24.1752 216.761 25.1763C218.453 25.4064 219.858 27.0071 219.865 28.7523C219.867 29.0374 219.836 29.3287 219.806 29.6101C219.738 30.2477 219.676 30.8499 219.958 31.3529C220.231 31.8375 220.789 32.13 221.328 32.4127C222.024 32.7774 222.745 33.1543 222.891 33.9608C223.009 34.6253 222.65 35.1883 222.302 35.7317C222.074 36.0854 221.841 36.4525 221.749 36.8355C221.532 37.7448 222.088 38.5575 222.677 39.4178C223.217 40.2084 223.777 41.0259 223.757 41.9756C223.73 43.3609 222.558 44.2421 221.425 45.0939C220.294 45.9444 219.224 46.7472 219.266 47.9882C219.28 48.4385 219.453 48.8583 219.637 49.3038C219.77 49.6293 219.908 49.9646 219.983 50.3183C220.261 51.6364 219.615 53.127 218.334 54.1158C217.2 54.9933 215.768 55.3996 214.505 55.7569C214.489 55.7618 214.475 55.7631 214.459 55.7631" fill="#444663"/>
<path d="M226.663 32.8961C226.641 32.8961 226.617 32.8912 226.595 32.8827C226.508 32.8447 226.469 32.7444 226.507 32.6587C228.441 28.2126 225.382 25.8335 225.252 25.7344C225.177 25.6781 225.162 25.5716 225.218 25.4969C225.275 25.4223 225.381 25.4064 225.456 25.4627C225.49 25.4884 228.861 28.0951 226.818 32.7946C226.791 32.8582 226.727 32.8961 226.663 32.8961Z" fill="#373750"/>
<path d="M177.87 8.09802C177.857 8.09802 177.841 8.0968 177.827 8.0919C177.737 8.06865 177.682 7.97564 177.706 7.88507C177.715 7.85081 178.649 4.50857 182.723 5.16943C182.816 5.18411 182.878 5.27101 182.863 5.36402C182.849 5.4558 182.759 5.51945 182.669 5.50354C178.893 4.89285 178.068 7.84591 178.034 7.97196C178.015 8.04784 177.946 8.09802 177.87 8.09802" fill="#373750"/>
<path d="M170.059 68.3623C170.042 68.3623 170.023 68.3599 170.005 68.3537C166.614 67.2229 167.514 63.3716 167.523 63.3324C167.545 63.2419 167.637 63.1856 167.729 63.2088C167.819 63.2308 167.875 63.3226 167.853 63.4132C167.818 63.5601 167.02 67.0002 170.113 68.0306C170.202 68.0612 170.25 68.1567 170.22 68.246C170.196 68.317 170.13 68.3623 170.059 68.3623" fill="#373750"/>
<path d="M211.001 66.2927C209.599 66.2927 208.461 65.6392 208.441 65.6282C208.36 65.5805 208.333 65.4764 208.38 65.3957C208.428 65.3149 208.532 65.288 208.613 65.3345C208.742 65.4104 211.804 67.1592 213.926 64.4974C213.984 64.424 214.092 64.413 214.164 64.4705C214.238 64.5292 214.249 64.6357 214.192 64.7091C213.213 65.9378 212.034 66.2927 211.001 66.2927Z" fill="#373750"/>
<path d="M150.787 131.401C150.718 131.401 150.65 131.364 150.615 131.299C150.562 131.205 150.596 131.085 150.691 131.033L155.388 128.415L155.419 128.409L158.931 127.788C159.037 127.77 159.139 127.841 159.158 127.947C159.177 128.054 159.106 128.157 158.999 128.175L155.521 128.791L150.883 131.377C150.852 131.392 150.819 131.401 150.787 131.401Z" fill="#2E2D2D"/>
<path d="M151.279 133.432C151.197 133.432 151.121 133.381 151.093 133.299C151.058 133.196 151.113 133.085 151.216 133.049L155.027 131.749L158.928 131.011C159.033 130.991 159.137 131.061 159.157 131.167C159.178 131.275 159.108 131.378 159 131.397L155.113 132.132L151.343 133.421C151.322 133.429 151.3 133.432 151.279 133.432" fill="#2E2D2D"/>
<path d="M151.678 135.076C151.58 135.076 151.495 135.004 151.482 134.903C151.47 134.796 151.546 134.698 151.655 134.684L156.073 134.152H158.014C158.122 134.152 158.21 134.24 158.21 134.349C158.21 134.457 158.122 134.545 158.014 134.545H156.084L151.702 135.075C151.693 135.076 151.686 135.076 151.678 135.076Z" fill="#2E2D2D"/>
<path d="M69.3674 81.0361L139.699 85.4822L155.454 150.452L83.5142 143.088L69.3674 81.0361" fill="#F5F6F5"/>
<path d="M113.004 113.047C113.004 115.304 111.175 117.132 108.919 117.132C106.663 117.132 104.834 115.304 104.834 113.047C104.834 110.792 106.663 108.962 108.919 108.962C111.175 108.962 113.004 110.792 113.004 113.047Z" fill="#867EB2"/>
<path d="M83.2474 141.032L154.806 148.615L139.543 85.6695L69.6177 81.2491L83.2474 141.032ZM155.066 149.039L155.042 149.036L82.9268 141.393L82.8949 141.256L69.1175 80.8232L69.3799 80.8403L139.856 85.295L139.89 85.4357L155.213 148.622L189.587 144.043L189.64 144.433L155.066 149.039" fill="#2E2D2D"/>
<path d="M0.068694 174.877C-0.0524636 174.724 -0.00644702 174.515 0.152526 174.283C0.295713 174.07 0.444527 173.864 0.597381 173.662C0.748522 173.456 0.905295 173.259 1.06476 173.066C1.14002 172.974 1.3105 172.875 1.35529 172.9C1.40204 172.927 1.39213 173.117 1.33669 173.205C0.959999 173.796 0.575108 174.386 0.068694 174.877" fill="#867EB2"/>
<path d="M2.77722 171.1C2.7946 170.819 2.96263 170.608 3.16762 170.395C3.37163 170.182 3.56401 169.952 3.76117 169.733C3.81098 169.677 3.85797 169.617 3.90986 169.566C4.11265 169.365 4.2868 169.305 4.33844 169.425C4.39951 169.567 4.28594 169.717 4.12635 169.884C3.86935 170.149 3.62055 170.43 3.36551 170.702C3.18622 170.895 3.00289 171.079 2.77722 171.1" fill="#867EB2"/>
<path d="M5.87051 171.075L5.13524 171.983C5.06744 172.065 4.97456 172.156 4.90137 172.192C4.83529 172.224 4.75623 172.207 4.72575 172.165C4.70581 172.137 4.74289 172.012 4.78682 171.958C5.13744 171.526 5.49602 171.101 5.85851 170.679C5.96878 170.551 6.10377 170.408 6.20106 170.474C6.31867 170.554 6.18368 170.725 6.07011 170.876C6.01431 170.95 5.95287 171.021 5.89401 171.093L5.87051 171.075" fill="#867EB2"/>
<path d="M147.378 101.591C147.347 101.591 147.318 101.583 147.29 101.567C147.21 101.518 147.184 101.414 147.232 101.333L158.819 82.0996C158.867 82.0201 158.972 81.9931 159.052 82.0421C159.132 82.091 159.158 82.1951 159.109 82.2758L147.523 101.509C147.492 101.562 147.435 101.591 147.378 101.591Z" fill="#2E2D2D"/>
<path d="M155.461 172.679L156.039 174.178C156.793 176.037 156.801 178.114 156.062 179.981L171.519 190.157L170.764 182.559L155.461 172.679Z" fill="#F5F6F5"/>
<path d="M156.143 179.956L171.44 190.027L170.701 182.597L155.594 172.843L156.1 174.154C156.857 176.02 156.872 178.078 156.143 179.956ZM171.598 190.287L171.483 190.211L155.982 180.006L156.002 179.957C156.737 178.098 156.729 176.054 155.979 174.203L155.328 172.514L170.825 182.521L170.828 182.553L171.598 190.287" fill="#2E2D2D"/>
<path d="M171.53 190.268L230.297 184.42L229.536 176.778L170.77 182.625L171.53 190.268Z" fill="#FFC2C9"/>
<path d="M170.77 182.625L171.53 190.268L171.147 190.023L170.385 182.368L170.77 182.625Z" fill="#E79FA8"/>
<path d="M155.375 172.428L155.282 172.367L206.148 167.305L229.536 176.777L170.77 182.625L155.375 172.428Z" fill="#F0AEB6"/>
<path d="M170.819 183.121L155.325 172.795L155.282 172.367L170.77 182.625L170.819 183.121Z" fill="#E79FA8"/>
<path d="M171.53 190.268L155.976 180.045L156.106 179.668L171.489 189.859L171.53 190.268" fill="#E79FA8"/>
<path d="M159.564 180.797L157.036 179.149L157.097 179.055L159.627 180.701L159.564 180.797" fill="#2E2D2D"/>
<path d="M164.559 184.049L159.982 181.068L160.043 180.973L164.62 183.954L164.559 184.049Z" fill="#2E2D2D"/>
<path d="M167.678 186.081L165.159 184.44L165.221 184.346L167.74 185.987L167.678 186.081" fill="#2E2D2D"/>
<path d="M162.825 181.109L157.863 177.878L157.926 177.782L162.887 181.014L162.825 181.109Z" fill="#2E2D2D"/>
<path d="M169.89 185.71L163.59 181.607L163.651 181.511L169.951 185.615L169.89 185.71Z" fill="#2E2D2D"/>
<path d="M159.872 177.578L158.052 176.392L158.113 176.298L159.934 177.484L159.872 177.578Z" fill="#2E2D2D"/>
<path d="M170.077 184.224L160.367 177.901L160.429 177.806L170.138 184.13L170.077 184.224Z" fill="#2E2D2D"/>
<path d="M197.632 174.739L208.16 178.905L229.536 176.778L212.2 169.755L197.632 174.739" fill="#E79FA8"/>
<path d="M213.048 144.764H196.087L196.47 141.832C196.519 141.453 196.842 141.171 197.224 141.171H211.911C212.292 141.171 212.616 141.453 212.665 141.832L213.048 144.764" fill="#252D33"/>
<path d="M211.137 174.781H197.843C197.576 174.781 197.35 174.582 197.318 174.316L193.596 143.91H215.235L211.663 174.314C211.633 174.581 211.406 174.781 211.137 174.781" fill="#464648"/>
<path d="M213.404 163.181L214.314 155.511H194.517L195.465 163.181H213.404Z" fill="#252D33"/>
<path d="M215.984 145.755H193.151C192.883 145.755 192.683 145.505 192.745 145.244L193.329 142.721H215.805L216.39 145.244C216.451 145.505 216.252 145.755 215.984 145.755" fill="#252D33"/>
<path d="M231.509 191.056C231.453 191.056 231.399 191.028 231.366 190.977C231.315 190.898 231.338 190.793 231.417 190.742L235.915 187.862C235.993 187.811 236.098 187.833 236.148 187.913C236.2 187.993 236.176 188.098 236.097 188.148L231.601 191.029C231.572 191.046 231.541 191.056 231.509 191.056Z" fill="#2E2D2D"/>
<path d="M220.457 198.4L220.397 198.394L196.537 195.984C196.444 195.974 196.376 195.891 196.385 195.798C196.395 195.704 196.481 195.638 196.571 195.646L220.37 198.05L226.093 194.235L228.567 192.612C228.645 192.561 228.75 192.583 228.802 192.661C228.853 192.74 228.831 192.845 228.753 192.896L226.281 194.519L220.457 198.4" fill="#2E2D2D"/>
<path d="M191.895 195.521C191.89 195.521 191.884 195.52 191.878 195.52L184.659 194.802L161.394 192.48L162.198 184.973C162.209 184.88 162.294 184.812 162.385 184.822C162.478 184.833 162.547 184.916 162.536 185.009L161.769 192.177L184.693 194.464L191.912 195.182C192.005 195.191 192.074 195.274 192.064 195.369C192.056 195.455 191.981 195.521 191.895 195.521" fill="#2E2D2D"/>
<path d="M175.136 182.35C175.051 182.35 174.976 182.285 174.967 182.198C174.958 182.104 175.026 182.02 175.119 182.012L178.816 181.636C178.908 181.628 178.993 181.695 179.002 181.788C179.011 181.882 178.944 181.965 178.851 181.975L175.153 182.35C175.147 182.35 175.142 182.35 175.136 182.35" fill="#2E2D2D"/>
<path d="M180.24 181.833C180.154 181.833 180.08 181.767 180.071 181.68C180.062 181.587 180.129 181.503 180.224 181.494L189.406 180.563L209.284 178.584C209.376 178.575 209.462 178.644 209.47 178.737C209.48 178.83 209.412 178.913 209.319 178.923L189.439 180.901L180.258 181.832C180.252 181.832 180.246 181.833 180.24 181.833" fill="#2E2D2D"/>
<path d="M229.327 176.839H229.328H229.327ZM219.878 177.897C219.791 177.897 219.717 177.832 219.709 177.744C219.699 177.651 219.768 177.568 219.861 177.558L228.887 176.66L212.189 169.897C212.102 169.863 212.06 169.764 212.094 169.677C212.13 169.589 212.229 169.548 212.316 169.583L229.454 176.524C229.55 176.562 229.606 176.66 229.591 176.762C229.576 176.863 229.494 176.942 229.393 176.951L219.895 177.897C219.889 177.897 219.883 177.897 219.878 177.897Z" fill="#2E2D2D"/>
</svg>
