<svg width="17" height="17" viewBox="0 0 17 17" fill="none" xmlns="http://www.w3.org/2000/svg">
<path d="M10.4054 12.2471C10.4711 12.1816 10.5232 12.1038 10.5587 12.0181C10.5943 11.9324 10.6125 11.8405 10.6125 11.7477C10.6125 11.655 10.5943 11.5631 10.5587 11.4774C10.5232 11.3917 10.4711 11.3139 10.4054 11.2484L7.65707 8.50004L10.4054 5.7517C10.5378 5.61926 10.6122 5.43963 10.6122 5.25233C10.6122 5.06503 10.5378 4.88539 10.4054 4.75295C10.273 4.62051 10.0933 4.54611 9.90603 4.54611C9.71872 4.54611 9.53909 4.62051 9.40665 4.75295L6.1554 8.0042C6.08974 8.06973 6.03764 8.14757 6.00209 8.23326C5.96655 8.31895 5.94825 8.41081 5.94825 8.50358C5.94825 8.59635 5.96655 8.6882 6.00209 8.77389C6.03764 8.85958 6.08974 8.93742 6.1554 9.00295L9.40665 12.2542C9.67582 12.5234 10.1292 12.5234 10.4054 12.2471Z" fill="#3E6CF7"/>
</svg>
