<svg width="287" height="287" viewBox="0 0 287 287" fill="none" xmlns="http://www.w3.org/2000/svg">
<path opacity="0.2" d="M262.496 147.679C272.076 86.5937 221.088 25.0207 154.176 17.375C153.344 17.2775 152.512 17.1914 151.674 17.1053C104.921 12.4616 62.1872 48.1759 49.9724 75.4122C37.7577 102.648 5.77443 128.565 17.6275 179.054C29.4806 229.543 61.6763 256.435 137.186 264.396C212.696 272.357 226.598 250.769 246.642 203.598C254.162 185.665 259.485 166.889 262.496 147.679V147.679Z" fill="#3E6CF7"/>
<path d="M258.794 233.411C256.848 233.136 253.134 230.748 253.134 230.748C253.134 230.748 255.464 228.791 255.625 228.687C257.514 227.476 261.876 226.248 263.816 227.849C264.131 228.123 264.384 228.46 264.56 228.839C264.735 229.217 264.829 229.628 264.835 230.045C264.841 230.462 264.759 230.876 264.594 231.259C264.43 231.642 264.186 231.986 263.879 232.269C262.628 233.498 260.453 233.652 258.794 233.411Z" fill="#3E6CF7"/>
<path d="M222.54 214.756C222.494 214.756 223.401 211.841 223.481 211.663C224.388 209.613 227.35 206.181 229.847 206.445C230.26 206.501 230.658 206.643 231.013 206.862C231.368 207.081 231.673 207.373 231.908 207.718C232.143 208.062 232.303 208.453 232.377 208.864C232.451 209.274 232.438 209.696 232.338 210.101C231.976 211.823 230.249 213.166 228.733 213.884C226.954 214.722 222.54 214.756 222.54 214.756Z" fill="#3E6CF7"/>
<path d="M218.906 263.386C218.051 264.453 217.27 265.458 216.564 266.382H214.797C215.686 265.234 216.725 263.948 217.896 262.553C218.579 261.738 219.325 260.883 220.095 260.011C219.393 259.148 218.74 258.247 218.137 257.313C216.553 257.841 213.327 257.697 212.914 257.68C212.788 258.719 212.684 259.729 212.592 260.682C212.391 262.846 212.271 264.769 212.191 266.382H210.75C210.87 264.735 211.037 262.766 211.295 260.55C211.416 259.494 211.559 258.369 211.726 257.215C211.318 257.089 208.006 256.067 206.795 254.982C205.693 254.007 204.556 252.457 204.677 250.901C204.694 250.535 204.787 250.177 204.951 249.849C205.115 249.522 205.346 249.232 205.629 249C205.912 248.767 206.241 248.597 206.594 248.499C206.947 248.401 207.317 248.379 207.679 248.433C209.854 248.823 211.508 252.451 211.772 254.403C211.772 254.517 211.812 255.786 211.817 256.584C211.886 256.113 211.949 255.654 212.024 255.172C212.173 254.213 212.346 253.26 212.529 252.233C212.633 251.745 212.742 251.246 212.851 250.746C212.96 250.247 213.109 249.73 213.241 249.214C213.568 248.031 213.953 246.849 214.389 245.661C213.551 245.534 210.578 245.029 209.332 244.226C208.086 243.422 206.743 242.067 206.629 240.512C206.592 240.149 206.631 239.783 206.745 239.436C206.858 239.09 207.043 238.771 207.288 238.5C207.532 238.23 207.831 238.014 208.164 237.866C208.498 237.718 208.858 237.642 209.223 237.642C211.427 237.699 213.614 241.028 214.165 242.923C214.2 243.037 214.446 244.438 214.567 245.219C214.825 244.507 215.078 243.801 215.359 243.089C216.174 241.04 217.081 238.991 217.942 236.942C218.212 236.316 218.476 235.69 218.74 235.059C218.441 235.019 214.894 234.485 213.499 233.595C212.259 232.797 210.905 231.437 210.79 229.881C210.754 229.519 210.794 229.153 210.908 228.806C211.022 228.46 211.207 228.142 211.452 227.872C211.696 227.601 211.994 227.385 212.327 227.237C212.66 227.089 213.02 227.012 213.384 227.011C215.594 227.069 217.776 230.398 218.332 232.292C218.373 232.436 218.723 234.45 218.786 234.967C219.36 233.584 219.934 232.2 220.433 230.817C221.122 228.943 221.688 227.025 222.127 225.077C221.989 225.077 218.286 224.503 216.857 223.608C215.623 222.81 214.268 221.449 214.148 219.894C214.112 219.531 214.152 219.165 214.266 218.819C214.38 218.473 214.565 218.154 214.809 217.884C215.054 217.614 215.352 217.398 215.685 217.249C216.018 217.101 216.378 217.024 216.742 217.024C218.952 217.081 221.133 220.41 221.69 222.305C221.725 222.425 221.994 223.963 222.104 224.698H222.23C222.619 222.72 222.827 220.71 222.85 218.694C222.884 217.592 222.85 216.536 222.804 215.508C222.104 215.48 218.906 215.319 217.529 214.63C216.151 213.941 214.716 212.77 214.429 211.238C214.35 210.88 214.346 210.509 214.419 210.15C214.493 209.79 214.641 209.45 214.854 209.152C215.067 208.853 215.341 208.603 215.658 208.418C215.974 208.232 216.326 208.115 216.691 208.075C218.889 207.891 221.426 210.945 222.184 212.782C222.23 212.879 222.534 213.93 222.758 214.699C222.723 214.24 222.701 213.758 222.666 213.316C222.523 211.651 222.293 210.136 222.092 208.798C221.96 208.035 221.834 207.352 221.702 206.709C221.03 206.324 218.338 204.734 217.448 203.518C216.559 202.301 215.813 200.567 216.26 199.075C216.356 198.723 216.524 198.396 216.754 198.113C216.983 197.831 217.269 197.599 217.593 197.433C217.917 197.267 218.272 197.171 218.636 197.15C218.999 197.129 219.363 197.185 219.704 197.313C221.742 198.162 222.574 202.054 222.414 204.017C222.414 204.189 221.868 206.818 221.84 206.801H221.799C221.937 207.415 222.075 208.069 222.213 208.793C222.459 210.136 222.723 211.663 222.901 213.316C223.11 215.111 223.213 216.916 223.211 218.723C223.22 220.745 223.05 222.764 222.701 224.756V224.83C223.005 224.256 223.9 222.683 223.981 222.569C225.129 220.979 228.331 218.591 230.427 219.285C230.771 219.411 231.085 219.607 231.349 219.862C231.613 220.116 231.82 220.423 231.957 220.763C232.095 221.103 232.159 221.468 232.147 221.834C232.134 222.201 232.045 222.56 231.885 222.89C231.247 224.314 229.508 225.129 228.073 225.462C226.454 225.835 222.907 225.117 222.649 225.06C222.225 227.064 221.67 229.039 220.99 230.972C220.605 232.12 220.181 233.268 219.744 234.376C220.02 233.888 220.272 233.457 220.318 233.4C221.466 231.804 224.669 229.416 226.764 230.111C227.109 230.236 227.423 230.433 227.687 230.687C227.951 230.942 228.158 231.249 228.295 231.589C228.433 231.929 228.497 232.294 228.485 232.66C228.472 233.026 228.383 233.386 228.222 233.716C227.585 235.139 225.846 235.96 224.411 236.287C222.976 236.614 219.94 236.075 219.142 235.914L218.625 237.211C217.793 239.283 216.949 241.344 216.18 243.388C215.91 244.111 215.675 244.834 215.434 245.552C215.68 245.121 215.887 244.759 215.927 244.708C217.075 243.118 220.272 240.724 222.373 241.419C222.718 241.543 223.033 241.739 223.297 241.994C223.561 242.248 223.769 242.556 223.906 242.896C224.043 243.236 224.107 243.602 224.093 243.968C224.079 244.335 223.988 244.694 223.826 245.023C223.188 246.447 221.455 247.268 220.02 247.595C218.585 247.922 215.835 247.434 214.888 247.251C214.665 247.997 214.435 248.743 214.251 249.472C214.136 249.977 213.993 250.453 213.901 250.964C213.809 251.475 213.712 251.963 213.614 252.462C213.465 253.421 213.31 254.408 213.184 255.332C213.097 255.987 213.023 256.612 212.948 257.238C213.207 256.515 213.746 255.114 213.804 255.005C214.661 253.496 215.89 252.232 217.374 251.332C217.463 251.16 217.567 250.997 217.684 250.844C217.9 250.547 218.176 250.3 218.493 250.117C218.811 249.934 219.164 249.82 219.529 249.782C219.893 249.744 220.262 249.783 220.611 249.897C220.959 250.011 221.28 250.196 221.553 250.442C223.148 251.969 222.528 255.901 221.667 257.674C221.621 257.778 220.944 258.851 220.519 259.523L221.472 258.461C222.127 257.743 222.798 257.043 223.516 256.285L224.606 255.223C224.962 254.856 225.381 254.517 225.754 254.162C226.678 253.352 227.654 252.583 228.659 251.825C228.027 251.251 225.829 249.191 225.215 247.836C224.6 246.481 224.245 244.604 225.002 243.244C225.171 242.918 225.406 242.631 225.693 242.402C225.98 242.173 226.311 242.007 226.666 241.915C227.021 241.822 227.392 241.805 227.754 241.865C228.116 241.925 228.461 242.06 228.768 242.263C230.576 243.525 230.559 247.509 229.979 249.392C229.939 249.512 229.37 250.815 229.043 251.527C229.652 251.073 230.254 250.626 230.88 250.189C232.694 248.927 234.565 247.71 236.431 246.487L238.153 245.339C237.929 245.138 235.283 242.745 234.594 241.229C234.02 239.88 233.618 237.998 234.381 236.637C234.549 236.311 234.783 236.024 235.069 235.794C235.355 235.565 235.686 235.398 236.041 235.305C236.396 235.212 236.766 235.194 237.128 235.254C237.49 235.313 237.835 235.448 238.141 235.65C239.949 236.919 239.938 240.902 239.352 242.785C239.312 242.928 238.491 244.805 238.256 245.27C239.501 244.438 240.741 243.594 241.924 242.716C243.536 241.536 245.07 240.254 246.516 238.876C246.407 238.784 243.611 236.299 242.928 234.743C242.354 233.394 241.958 231.517 242.716 230.151C242.883 229.824 243.118 229.536 243.404 229.306C243.691 229.076 244.023 228.909 244.378 228.816C244.733 228.722 245.104 228.705 245.467 228.765C245.829 228.825 246.175 228.961 246.481 229.164C248.289 230.432 248.272 234.41 247.692 236.293C247.652 236.419 247.027 237.848 246.717 238.526L246.82 238.595C248.23 237.17 249.509 235.622 250.643 233.968C251.28 233.067 251.837 232.172 252.365 231.288C251.791 230.874 249.219 228.992 248.45 227.648C247.681 226.305 247.13 224.543 247.738 223.108C247.869 222.766 248.07 222.454 248.329 222.195C248.588 221.935 248.899 221.733 249.241 221.602C249.583 221.47 249.949 221.412 250.315 221.431C250.682 221.45 251.04 221.547 251.366 221.713C253.306 222.775 253.725 226.736 253.358 228.67C253.358 228.774 253.013 229.818 252.784 230.582C253.013 230.18 253.26 229.767 253.473 229.376C254.271 227.912 254.919 226.506 255.476 225.289C255.792 224.583 256.05 223.935 256.302 223.332C255.958 222.637 254.58 219.831 254.517 218.321C254.454 216.811 254.776 214.957 255.981 213.964C256.255 213.721 256.577 213.537 256.927 213.426C257.276 213.315 257.645 213.279 258.01 213.321C258.374 213.362 258.726 213.479 259.042 213.665C259.358 213.851 259.631 214.102 259.844 214.401C261.072 216.237 259.62 219.945 258.403 221.489C258.294 221.627 256.406 223.527 256.383 223.493C256.381 223.477 256.381 223.462 256.383 223.447C256.159 224.021 255.912 224.664 255.625 225.341C255.091 226.592 254.477 228.004 253.702 229.491C252.886 231.101 251.978 232.663 250.981 234.169C249.875 235.863 248.619 237.453 247.228 238.922L247.17 238.973C247.744 238.664 249.357 237.825 249.466 237.797C251.314 237.114 255.292 236.878 256.658 238.612C256.877 238.906 257.032 239.244 257.112 239.602C257.191 239.96 257.195 240.331 257.122 240.691C257.049 241.05 256.901 241.39 256.687 241.689C256.474 241.987 256.2 242.238 255.883 242.423C254.569 243.256 252.669 242.997 251.291 242.469C249.736 241.895 247.193 239.341 246.986 239.14C245.535 240.6 243.987 241.961 242.354 243.215C241.407 243.95 240.431 244.662 239.438 245.362C239.938 245.11 240.385 244.886 240.454 244.863C242.303 244.174 246.28 243.939 247.641 245.678C247.864 245.976 248.02 246.318 248.1 246.681C248.18 247.044 248.181 247.421 248.103 247.784C248.025 248.148 247.871 248.491 247.649 248.79C247.428 249.089 247.145 249.337 246.82 249.518C245.5 250.356 243.6 250.092 242.228 249.564C240.856 249.036 238.612 246.918 238.032 246.344L236.884 247.142C235.047 248.41 233.205 249.661 231.437 250.947C230.817 251.401 230.22 251.871 229.623 252.336C230.065 252.112 230.438 251.929 230.501 251.906C232.349 251.217 236.322 250.982 237.688 252.715C237.907 253.01 238.061 253.347 238.141 253.705C238.221 254.063 238.224 254.434 238.151 254.794C238.078 255.153 237.93 255.493 237.717 255.792C237.503 256.091 237.229 256.341 236.913 256.526C235.598 257.364 233.698 257.1 232.321 256.572C230.943 256.044 228.923 254.127 228.228 253.456C227.654 253.949 227.028 254.449 226.472 254.954C226.099 255.31 225.714 255.631 225.358 256.004L224.296 257.095C223.642 257.812 222.965 258.553 222.345 259.264C221.908 259.764 221.507 260.24 221.093 260.722C221.707 260.263 222.93 259.391 223.045 259.333C224.767 258.375 228.659 257.537 230.272 259.046C230.533 259.304 230.737 259.614 230.87 259.956C231.003 260.299 231.063 260.665 231.045 261.032C231.027 261.398 230.932 261.757 230.766 262.085C230.6 262.412 230.367 262.701 230.082 262.932C228.934 263.954 226.988 263.971 225.548 263.673C223.963 263.34 221.162 261.308 220.812 261.05C220.158 261.847 219.509 262.634 218.906 263.386Z" fill="#3E6CF7"/>
<path d="M170.099 242.538C168.693 242.337 166.018 240.592 166.018 240.592C166.018 240.592 167.7 239.18 167.815 239.105C169.181 238.227 172.338 237.343 173.738 238.497C173.966 238.695 174.149 238.939 174.276 239.213C174.403 239.486 174.471 239.784 174.475 240.085C174.48 240.387 174.42 240.686 174.301 240.963C174.182 241.241 174.006 241.49 173.784 241.694C172.872 242.601 171.299 242.71 170.099 242.538Z" fill="#3E6CF7"/>
<path d="M143.879 229.026C143.844 229.026 144.505 226.919 144.562 226.793C145.216 225.306 147.357 222.827 149.154 223.016C149.453 223.057 149.741 223.16 149.997 223.318C150.254 223.477 150.475 223.688 150.645 223.938C150.815 224.187 150.93 224.47 150.984 224.767C151.038 225.064 151.028 225.369 150.956 225.662C150.692 226.914 149.441 227.878 148.345 228.395C147.07 229.026 143.879 229.026 143.879 229.026Z" fill="#3E6CF7"/>
<path d="M141.256 264.212C140.63 264.987 140.067 265.716 139.534 266.382H138.254C138.897 265.561 139.643 264.625 140.492 263.615C140.986 263.041 141.525 262.404 142.082 261.773C141.572 261.151 141.098 260.499 140.664 259.821C139.516 260.206 137.186 260.102 136.888 260.085C136.801 260.837 136.721 261.572 136.658 262.261C136.514 263.828 136.423 265.217 136.365 266.382H135.326C135.412 265.188 135.533 263.77 135.717 262.163C135.803 261.4 135.912 260.59 136.027 259.752C135.734 259.66 133.34 258.914 132.462 258.139C131.584 257.364 130.843 256.308 130.935 255.189C130.946 254.924 131.012 254.664 131.13 254.426C131.248 254.188 131.415 253.978 131.62 253.809C131.825 253.64 132.063 253.516 132.319 253.445C132.574 253.374 132.842 253.358 133.105 253.398C134.678 253.685 135.872 256.302 136.061 257.715C136.061 257.801 136.095 258.719 136.095 259.299C136.147 258.954 136.193 258.627 136.245 258.277C136.354 257.582 136.48 256.894 136.612 256.153C136.687 255.797 136.761 255.436 136.842 255.074C136.922 254.712 137.031 254.339 137.129 253.966C137.364 253.111 137.645 252.244 137.944 251.395C137.335 251.303 135.188 250.941 134.287 250.362C133.386 249.782 132.416 248.8 132.33 247.675C132.301 247.411 132.328 247.144 132.409 246.892C132.49 246.639 132.623 246.406 132.801 246.208C132.978 246.011 133.194 245.853 133.437 245.744C133.679 245.636 133.942 245.58 134.207 245.58C135.803 245.62 137.381 248.031 137.783 249.397C137.783 249.483 137.984 250.499 138.07 251.056C138.259 250.545 138.437 250.029 138.644 249.518C139.218 248.031 139.878 246.55 140.515 245.069C140.71 244.616 140.9 244.162 141.089 243.709C140.871 243.68 138.305 243.301 137.301 242.653C136.405 242.079 135.424 241.091 135.343 239.966C135.314 239.703 135.341 239.436 135.422 239.183C135.503 238.93 135.637 238.697 135.814 238.5C135.991 238.302 136.208 238.144 136.45 238.036C136.693 237.927 136.955 237.871 137.22 237.871C138.816 237.912 140.395 240.322 140.796 241.688C140.796 241.792 141.078 243.25 141.124 243.629C141.543 242.624 141.956 241.625 142.318 240.621C142.813 239.269 143.221 237.886 143.54 236.482C143.443 236.482 140.762 236.086 139.729 235.42C138.833 234.846 137.858 233.859 137.771 232.734C137.742 232.47 137.769 232.204 137.85 231.951C137.932 231.699 138.065 231.466 138.242 231.269C138.419 231.072 138.636 230.914 138.879 230.807C139.121 230.699 139.383 230.644 139.648 230.645C141.244 230.685 142.823 233.09 143.224 234.462C143.253 234.548 143.443 235.661 143.523 236.184H143.615C143.898 234.762 144.053 233.317 144.08 231.867C144.08 231.069 144.08 230.306 144.04 229.571C143.534 229.571 141.221 229.434 140.228 228.934C139.235 228.435 138.191 227.591 137.984 226.483C137.926 226.224 137.923 225.955 137.976 225.694C138.028 225.433 138.135 225.187 138.29 224.97C138.444 224.754 138.642 224.572 138.871 224.437C139.1 224.302 139.356 224.217 139.62 224.187C141.21 224.055 143.064 226.277 143.598 227.591C143.626 227.666 143.85 228.423 144.005 228.98C144.005 228.647 143.965 228.303 143.936 227.981C143.833 226.776 143.666 225.685 143.511 224.71C143.42 224.136 143.328 223.665 143.236 223.2C142.748 222.924 140.802 221.776 140.159 220.904C139.516 220.031 138.971 218.774 139.298 217.695C139.364 217.434 139.485 217.189 139.653 216.978C139.821 216.767 140.033 216.594 140.273 216.471C140.513 216.349 140.777 216.279 141.046 216.266C141.316 216.253 141.585 216.298 141.835 216.398C143.305 217.012 143.913 219.842 143.793 221.248C143.793 221.375 143.402 223.275 143.374 223.263H143.345C143.443 223.705 143.546 224.181 143.644 224.704C143.821 225.674 144.011 226.77 144.137 227.976C144.291 229.273 144.368 230.578 144.367 231.885C144.372 233.347 144.247 234.807 143.994 236.247C143.996 236.264 143.996 236.281 143.994 236.299C144.212 235.885 144.86 234.749 144.924 234.668C145.762 233.52 148.069 231.798 149.584 232.292C149.834 232.382 150.062 232.523 150.253 232.707C150.444 232.891 150.594 233.114 150.693 233.36C150.792 233.606 150.839 233.87 150.828 234.135C150.818 234.4 150.752 234.66 150.635 234.898C150.176 235.925 148.913 236.517 147.88 236.758C146.732 237.028 144.16 236.511 143.959 236.465C143.672 237.926 143.288 239.366 142.811 240.776C142.53 241.597 142.237 242.417 141.91 243.232C142.111 242.882 142.289 242.567 142.323 242.526C143.161 241.378 145.469 239.656 146.984 240.15C147.233 240.241 147.46 240.383 147.651 240.567C147.842 240.751 147.991 240.973 148.09 241.219C148.189 241.465 148.236 241.729 148.226 241.993C148.217 242.258 148.151 242.518 148.035 242.756C147.575 243.784 146.313 244.381 145.279 244.616C144.246 244.851 142.042 244.461 141.468 244.346L141.095 245.287C140.492 246.786 139.884 248.272 139.327 249.753C139.132 250.275 138.96 250.798 138.787 251.314C138.965 251.004 139.115 250.74 139.143 250.706C139.987 249.558 142.289 247.836 143.804 248.33C144.053 248.42 144.28 248.562 144.471 248.746C144.662 248.93 144.812 249.152 144.911 249.398C145.011 249.644 145.058 249.907 145.049 250.172C145.04 250.437 144.976 250.697 144.86 250.936C144.395 251.963 143.138 252.56 142.105 252.795C141.072 253.031 139.08 252.681 138.391 252.549C138.231 253.088 138.064 253.622 137.932 254.156C137.852 254.517 137.743 254.862 137.68 255.229C137.617 255.596 137.542 255.958 137.473 256.314C137.364 257.009 137.249 257.72 137.163 258.403C137.094 258.874 137.043 259.322 136.991 259.775C137.175 259.259 137.565 258.243 137.611 258.162C138.228 257.07 139.118 256.156 140.194 255.51C140.256 255.384 140.331 255.265 140.418 255.154C140.573 254.94 140.772 254.76 141.002 254.628C141.231 254.495 141.486 254.412 141.75 254.385C142.014 254.357 142.28 254.385 142.532 254.467C142.784 254.55 143.016 254.684 143.213 254.862C144.361 255.964 143.919 258.811 143.299 260.097C143.259 260.171 142.771 260.946 142.455 261.434C142.685 261.176 142.903 260.923 143.144 260.659C143.615 260.143 144.097 259.637 144.619 259.092L145.406 258.317C145.664 258.059 145.98 257.812 146.255 257.554C146.921 256.98 147.633 256.406 148.356 255.86C147.903 255.447 146.307 253.961 145.876 252.99C145.446 252.02 145.176 250.654 145.727 249.667C145.849 249.432 146.019 249.225 146.226 249.059C146.433 248.894 146.673 248.774 146.929 248.706C147.186 248.639 147.453 248.627 147.715 248.67C147.977 248.713 148.226 248.81 148.448 248.955C149.757 249.874 149.745 252.755 149.32 254.121C149.32 254.207 148.884 255.149 148.649 255.665C149.085 255.338 149.521 255.011 149.975 254.695C151.289 253.783 152.644 252.904 153.993 252.02L155.227 251.2C155.06 251.056 153.132 249.323 152.65 248.226C152.219 247.251 151.944 245.89 152.495 244.909C152.616 244.673 152.786 244.465 152.993 244.299C153.2 244.133 153.439 244.012 153.696 243.945C153.953 243.878 154.221 243.866 154.483 243.909C154.744 243.952 154.994 244.05 155.215 244.197C156.524 245.109 156.513 247.991 156.094 249.363C156.059 249.466 155.468 250.827 155.301 251.165C156.203 250.591 157.092 249.954 157.953 249.317C159.112 248.463 160.215 247.535 161.254 246.539C161.179 246.47 159.153 244.673 158.659 243.548C158.235 242.578 157.959 241.212 158.51 240.23C158.631 239.995 158.801 239.787 159.008 239.621C159.215 239.455 159.455 239.334 159.712 239.267C159.968 239.2 160.236 239.188 160.498 239.231C160.76 239.274 161.01 239.372 161.231 239.519C162.54 240.437 162.528 243.313 162.109 244.685C162.08 244.771 161.627 245.804 161.403 246.292L161.478 246.344C162.497 245.314 163.423 244.196 164.244 243.003C164.704 242.349 165.105 241.7 165.484 241.057C165.071 240.764 163.188 239.387 162.654 238.428C162.121 237.47 161.696 236.184 162.138 235.145C162.232 234.897 162.378 234.672 162.565 234.484C162.752 234.296 162.977 234.15 163.224 234.054C163.471 233.959 163.736 233.917 164.001 233.931C164.266 233.945 164.525 234.014 164.761 234.135C166.162 234.904 166.483 237.768 166.202 239.169C166.202 239.243 165.949 240.001 165.771 240.552C165.938 240.259 166.116 239.978 166.271 239.679C166.845 238.618 167.315 237.613 167.723 236.718C167.947 236.212 168.142 235.742 168.297 235.306C168.044 234.806 167.051 232.774 167.005 231.684C166.959 230.593 167.195 229.25 168.061 228.532C168.26 228.357 168.493 228.225 168.746 228.145C168.999 228.065 169.266 228.039 169.529 228.069C169.793 228.098 170.047 228.183 170.276 228.317C170.505 228.452 170.702 228.632 170.857 228.848C171.747 230.174 170.696 232.866 169.812 233.974C169.738 234.071 168.366 235.449 168.354 235.42V235.392C168.193 235.816 168.016 236.27 167.809 236.764C167.424 237.665 166.977 238.686 166.42 239.76C165.832 240.927 165.174 242.058 164.451 243.146C163.65 244.373 162.742 245.526 161.736 246.59L161.696 246.625C162.109 246.401 163.274 245.81 163.372 245.775C164.704 245.282 167.579 245.109 168.567 246.349C168.724 246.564 168.835 246.809 168.892 247.069C168.949 247.328 168.95 247.597 168.896 247.858C168.842 248.118 168.733 248.364 168.578 248.58C168.422 248.796 168.223 248.977 167.993 249.11C167.04 249.713 165.668 249.512 164.669 249.139C163.521 248.72 161.702 246.877 161.552 246.734C160.502 247.789 159.382 248.773 158.2 249.679C157.517 250.212 156.811 250.729 156.094 251.234L156.828 250.872C158.166 250.379 161.041 250.207 162.029 251.446C162.186 251.661 162.297 251.906 162.354 252.166C162.411 252.426 162.412 252.695 162.358 252.955C162.304 253.215 162.195 253.462 162.04 253.677C161.884 253.893 161.685 254.074 161.455 254.207C160.508 254.81 159.159 254.609 158.131 254.236C157.104 253.863 155.52 252.319 155.101 251.911L154.274 252.485C152.942 253.398 151.611 254.305 150.336 255.235C149.883 255.562 149.452 255.906 149.016 256.239L149.653 255.929C150.991 255.436 153.866 255.264 154.854 256.503C155.011 256.718 155.122 256.963 155.179 257.223C155.236 257.483 155.237 257.751 155.183 258.012C155.129 258.272 155.02 258.519 154.865 258.734C154.709 258.95 154.51 259.131 154.28 259.264C153.327 259.867 151.949 259.666 150.951 259.293C149.952 258.92 148.494 257.525 147.994 257.037C147.564 257.399 147.128 257.755 146.726 258.122C146.456 258.38 146.152 258.61 145.922 258.885L145.147 259.672C144.677 260.194 144.189 260.722 143.741 261.245C143.425 261.6 143.133 261.945 142.834 262.295C143.282 261.962 144.166 261.336 144.246 261.291C145.492 260.596 148.304 259.993 149.475 261.084C149.664 261.27 149.811 261.495 149.907 261.742C150.003 261.989 150.045 262.253 150.032 262.518C150.019 262.783 149.951 263.042 149.831 263.278C149.711 263.515 149.543 263.724 149.338 263.891C148.488 264.631 147.099 264.648 146.054 264.43C144.906 264.189 142.886 262.708 142.61 262.53C142.157 263.104 141.686 263.673 141.256 264.212Z" fill="#3E6CF7"/>
<path d="M27.7414 231.787C29.7849 231.494 33.6651 228.969 33.6651 228.969C33.6651 228.969 31.2256 226.914 31.0534 226.805C29.0731 225.536 24.4983 224.25 22.4434 225.926C22.1139 226.214 21.8487 226.568 21.665 226.965C21.4814 227.363 21.3834 227.794 21.3774 228.231C21.3715 228.669 21.4577 229.103 21.6305 229.505C21.8033 229.907 22.0587 230.268 22.3803 230.564C23.7177 231.896 26.0022 232.04 27.7414 231.787Z" fill="#3E6CF7"/>
<path d="M65.7861 212.208C65.832 212.208 64.8792 209.154 64.7988 208.965C63.846 206.812 60.7407 203.225 58.1175 203.494C57.6838 203.552 57.2672 203.7 56.8946 203.93C56.522 204.159 56.2019 204.464 55.955 204.825C55.7081 205.186 55.54 205.595 55.4616 206.026C55.3833 206.456 55.3963 206.898 55.5 207.323C55.8789 209.148 57.6985 210.543 59.2884 211.295C61.1539 212.179 65.7804 212.208 65.7861 212.208Z" fill="#3E6CF7"/>
<path d="M69.5917 263.236C70.4929 264.356 71.3137 265.412 72.0485 266.382H73.9082C72.9726 265.188 71.882 263.828 70.6536 262.364C69.9361 261.509 69.1555 260.613 68.3576 259.695C69.0988 258.792 69.7868 257.847 70.4183 256.865C72.0714 257.439 75.458 257.273 75.9 257.25C76.0263 258.34 76.1353 259.402 76.2272 260.407C76.4396 262.674 76.5716 264.689 76.6577 266.382H78.1616C78.041 264.66 77.8631 262.588 77.5876 260.263C77.4613 259.155 77.3063 257.967 77.1398 256.762C77.5646 256.635 81.0373 255.551 82.3058 254.42C83.4538 253.398 84.6535 251.768 84.5272 250.138C84.5107 249.753 84.4133 249.377 84.2415 249.032C84.0696 248.688 83.8271 248.384 83.5298 248.14C83.2324 247.895 82.8869 247.716 82.5158 247.615C82.1447 247.513 81.7563 247.491 81.376 247.549C79.08 247.957 77.358 251.762 77.0824 253.811C77.0824 253.932 77.0365 255.264 77.0365 256.107C76.9619 255.614 76.8988 255.132 76.8184 254.626C76.6634 253.622 76.4797 252.617 76.2903 251.544C76.1755 251.027 76.0665 250.505 75.9517 249.977C75.8369 249.449 75.6761 248.915 75.5384 248.376C75.1997 247.13 74.7922 245.89 74.3502 244.645C75.2342 244.513 78.3682 243.979 79.654 243.141C80.9397 242.303 82.3747 240.873 82.524 239.243C82.566 238.859 82.5264 238.471 82.4079 238.103C82.2893 237.735 82.0944 237.396 81.8359 237.109C81.5774 236.822 81.2612 236.593 80.908 236.436C80.5547 236.28 80.1724 236.2 79.786 236.201C77.49 236.258 75.194 239.754 74.62 241.74C74.5855 241.861 74.3272 243.336 74.201 244.145C73.9312 243.399 73.6671 242.659 73.3687 241.912C72.5134 239.76 71.5778 237.613 70.6594 235.461C70.3724 234.806 70.0854 234.146 69.8213 233.486C70.137 233.44 73.8393 232.912 75.3203 231.953C76.6175 231.115 78.041 229.657 78.1903 228.056C78.2321 227.673 78.193 227.286 78.0755 226.92C77.9579 226.553 77.7646 226.215 77.508 225.928C77.2514 225.642 76.9373 225.412 76.5861 225.254C76.2349 225.097 75.8544 225.015 75.4695 225.014C73.1735 225.077 70.8775 228.573 70.3035 230.559C70.2576 230.708 69.8902 232.826 69.8271 233.365C69.2129 231.913 68.6217 230.461 68.1051 229.009C67.3841 227.048 66.7916 225.043 66.3314 223.005C66.4749 223.005 70.3494 222.431 71.859 221.466C73.1563 220.628 74.5798 219.199 74.729 217.569C74.7709 217.186 74.7318 216.799 74.6143 216.433C74.4967 216.066 74.3034 215.728 74.0467 215.441C73.7901 215.155 73.476 214.925 73.1248 214.767C72.7736 214.61 72.3932 214.528 72.0083 214.527C69.7123 214.59 67.4163 218.086 66.8423 220.072C66.8021 220.198 66.5208 221.794 66.406 222.58H66.274C65.8093 220.524 65.5288 218.43 65.436 216.323C65.4015 215.175 65.436 214.062 65.4876 212.983C66.2224 212.954 69.5803 212.782 71.021 212.064C72.4617 211.347 73.9771 210.113 74.2756 208.506C74.3584 208.13 74.3615 207.741 74.2846 207.364C74.2076 206.987 74.0524 206.63 73.829 206.317C73.6055 206.004 73.3188 205.741 72.9874 205.545C72.656 205.35 72.2872 205.226 71.905 205.182C69.609 204.993 66.9341 208.213 66.165 210.118C66.1248 210.222 65.7976 211.33 65.591 212.133C65.6254 211.651 65.6484 211.146 65.6885 210.681C65.832 208.959 66.0731 207.346 66.3027 205.94C66.4347 205.142 66.5725 204.424 66.7103 203.753C67.4163 203.345 70.2404 201.681 71.1702 200.401C72.1001 199.121 72.8922 197.307 72.4158 195.74C72.316 195.369 72.1392 195.023 71.8971 194.724C71.655 194.426 71.3529 194.181 71.0103 194.007C70.6678 193.833 70.2925 193.733 69.9087 193.713C69.5249 193.693 69.1412 193.754 68.7824 193.891C66.6414 194.781 65.7632 198.868 65.9124 200.929C65.9124 201.107 66.4864 203.868 66.4864 203.845H66.5323C66.3888 204.488 66.2396 205.176 66.0961 205.94C65.8378 207.34 65.5623 208.93 65.3786 210.681C65.1586 212.563 65.0493 214.457 65.0514 216.352C65.043 218.468 65.2216 220.581 65.5852 222.666V222.735C65.2695 222.161 64.3282 220.491 64.2421 220.37C63.0194 218.7 59.6501 216.191 57.4803 216.926C57.1183 217.057 56.788 217.263 56.5108 217.53C56.2336 217.797 56.0159 218.119 55.8718 218.476C55.7278 218.833 55.6606 219.217 55.6746 219.601C55.6887 219.986 55.7837 220.363 55.9535 220.709C56.6193 222.201 58.4389 223.062 59.9715 223.407C61.6935 223.797 65.3728 223.045 65.6656 222.988C66.0986 225.106 66.6739 227.192 67.3876 229.233C67.7894 230.427 68.2314 231.615 68.6906 232.803C68.3978 232.292 68.1166 231.839 68.1166 231.775C66.8939 230.111 63.5533 227.603 61.3548 228.331C60.9928 228.462 60.6625 228.668 60.3853 228.935C60.1081 229.202 59.8904 229.525 59.7463 229.882C59.6023 230.239 59.5351 230.622 59.5491 231.007C59.5632 231.391 59.6582 231.769 59.828 232.114C60.4938 233.607 62.3134 234.462 63.846 234.812C65.3786 235.162 68.5413 234.582 69.3794 234.422C69.5573 234.875 69.7352 235.329 69.9189 235.782C70.7971 237.952 71.6811 240.116 72.479 242.262C72.766 243.02 73.0128 243.778 73.2711 244.53C73.0128 244.076 72.7889 243.697 72.7487 243.646C71.5261 241.975 68.1567 239.467 65.987 240.202C65.625 240.333 65.2946 240.538 65.0175 240.805C64.7403 241.073 64.5226 241.395 64.3785 241.752C64.2344 242.109 64.1672 242.492 64.1813 242.877C64.1954 243.262 64.2904 243.639 64.4602 243.984C65.126 245.477 66.9513 246.338 68.4782 246.682C70.005 247.027 72.8635 246.51 73.8623 246.321C74.0976 247.101 74.3387 247.882 74.5281 248.651C74.6487 249.179 74.8037 249.679 74.8955 250.212C74.9873 250.746 75.0964 251.269 75.1997 251.785C75.3547 252.79 75.5212 253.829 75.6474 254.816C75.745 255.499 75.8196 256.153 75.9 256.808C75.6245 256.056 75.062 254.586 74.9988 254.466C74.0995 252.882 72.809 251.556 71.2506 250.614C71.1599 250.434 71.0523 250.263 70.9292 250.103C70.7031 249.792 70.414 249.532 70.0807 249.339C69.7474 249.147 69.3774 249.027 68.9947 248.987C68.612 248.947 68.2251 248.988 67.8593 249.107C67.4934 249.226 67.1567 249.421 66.871 249.679C65.1949 251.28 65.8435 255.419 66.7447 257.273C66.8021 257.382 67.5081 258.507 67.9731 259.213C67.6344 258.84 67.3187 258.472 66.9686 258.093C66.2855 257.341 65.5852 256.607 64.8275 255.797L63.6795 254.678C63.3064 254.294 62.8645 253.943 62.4512 253.565C61.4811 252.721 60.4537 251.906 59.4032 251.114C60.0633 250.511 62.3708 248.353 62.9965 246.929C63.6221 245.506 64.0182 243.542 63.2203 242.113C63.0439 241.771 62.7974 241.47 62.4969 241.229C62.1964 240.988 61.8486 240.814 61.4761 240.716C61.1037 240.619 60.7148 240.601 60.335 240.663C59.9551 240.726 59.5926 240.868 59.2712 241.08C57.3713 242.406 57.3885 246.585 57.9969 248.542C58.0371 248.663 58.6341 250.034 58.9785 250.781C58.3413 250.304 57.7099 249.828 57.0498 249.374C55.1499 248.054 53.1868 246.774 51.2295 245.488C50.6555 245.098 50.0413 244.702 49.4443 244.3C49.6797 244.094 52.4865 241.579 53.1811 239.989C53.801 238.577 54.2028 236.603 53.4049 235.174C53.2285 234.831 52.982 234.53 52.6815 234.289C52.381 234.049 52.0332 233.874 51.6607 233.777C51.2883 233.679 50.8994 233.661 50.5196 233.724C50.1397 233.786 49.7772 233.928 49.4558 234.14C47.5616 235.466 47.5731 239.645 48.1873 241.602C48.2332 241.746 49.0942 243.72 49.3353 244.208C48.0266 243.336 46.7351 242.452 45.4895 241.528C43.8049 240.296 42.2038 238.953 40.6966 237.51C40.8056 237.412 43.7445 234.806 44.4563 233.176C45.0819 231.758 45.478 229.784 44.6801 228.36C44.5037 228.018 44.2572 227.717 43.9567 227.476C43.6562 227.235 43.3084 227.061 42.9359 226.963C42.5635 226.866 42.1746 226.848 41.7948 226.91C41.4149 226.973 41.0524 227.115 40.731 227.327C38.8368 228.653 38.8483 232.832 39.4625 234.789C39.5027 234.921 40.157 236.425 40.4842 237.131L40.3751 237.206C38.8949 235.709 37.5503 234.084 36.3571 232.349C35.6913 231.402 35.1058 230.461 34.5548 229.537C35.1288 229.106 37.8553 227.115 38.6646 225.714C39.474 224.313 40.048 222.459 39.4108 220.95C39.2741 220.59 39.0631 220.264 38.7914 219.991C38.5197 219.719 38.1936 219.507 37.8343 219.369C37.4751 219.232 37.0908 219.171 36.7067 219.192C36.3225 219.214 35.9472 219.316 35.6052 219.492C33.5732 220.605 33.1255 224.761 33.5158 226.793C33.5158 226.902 33.8775 227.999 34.1358 228.796C33.8947 228.377 33.6364 227.941 33.4125 227.534C32.5745 225.995 31.8972 224.537 31.3117 223.24C30.9788 222.5 30.6975 221.822 30.4392 221.191C30.8066 220.462 32.2416 217.512 32.3162 215.933C32.3908 214.355 32.0407 212.403 30.7836 211.341C30.4958 211.086 30.1576 210.894 29.7909 210.779C29.4242 210.663 29.0373 210.625 28.6551 210.668C28.273 210.712 27.9043 210.835 27.5728 211.03C27.2414 211.225 26.9546 211.487 26.7312 211.8C25.4397 213.723 26.9608 217.615 28.2408 219.262C28.3556 219.406 30.3359 221.398 30.3588 221.363C30.3607 221.348 30.3607 221.332 30.3588 221.317C30.5942 221.937 30.8582 222.591 31.1567 223.303C31.7307 224.618 32.3621 226.093 33.1714 227.654C34.032 229.346 34.9902 230.987 36.0414 232.568C37.1827 234.37 38.4832 236.066 39.9274 237.636L39.9848 237.688C39.4108 237.361 37.6888 236.505 37.5568 236.454C35.6167 235.736 31.4494 235.489 30.0144 237.309C29.7809 237.618 29.6156 237.973 29.5295 238.351C29.4434 238.729 29.4385 239.12 29.515 239.5C29.5915 239.88 29.7477 240.239 29.9733 240.554C30.1989 240.869 30.4888 241.132 30.8238 241.327C32.2071 242.205 34.1989 241.901 35.6454 241.378C37.2813 240.764 39.9504 238.095 40.1628 237.883C41.6876 239.416 43.3137 240.844 45.0303 242.159C46.0233 242.928 47.045 243.68 48.084 244.415L47.0221 243.887C45.0819 243.169 40.909 242.923 39.4797 244.742C39.2471 245.052 39.0826 245.407 38.997 245.784C38.9114 246.162 38.9066 246.553 38.9831 246.933C39.0595 247.312 39.2154 247.671 39.4405 247.986C39.6656 248.301 39.9548 248.565 40.289 248.76C41.6724 249.633 43.6642 249.334 45.1106 248.806C46.5571 248.278 48.9048 246.028 49.5132 245.425L50.7129 246.263C52.6415 247.589 54.5702 248.909 56.4529 250.281C57.1072 250.752 57.7329 251.246 58.3643 251.733C57.8994 251.498 57.5033 251.309 57.4402 251.28C55.5 250.562 51.3328 250.316 49.8978 252.135C49.6654 252.445 49.5012 252.801 49.4161 253.178C49.3309 253.556 49.3267 253.948 49.4037 254.327C49.4807 254.707 49.6371 255.066 49.8628 255.38C50.0884 255.695 50.3781 255.959 50.7129 256.153C52.0905 257.026 54.088 256.727 55.5345 256.199C56.981 255.671 59.099 253.633 59.8223 252.927C60.4537 253.45 61.0793 253.966 61.6648 254.5C62.0609 254.873 62.4627 255.206 62.8128 255.602L63.9608 256.75C64.6439 257.502 65.3556 258.271 66.0042 259.046C66.4634 259.569 66.8882 260.068 67.313 260.573C66.6701 260.097 65.3843 259.178 65.2695 259.115C63.4614 258.111 59.3803 257.232 57.687 258.817C57.4135 259.087 57.2001 259.412 57.0605 259.771C56.9209 260.13 56.8582 260.513 56.8766 260.898C56.895 261.282 56.9941 261.658 57.1673 262.002C57.3405 262.345 57.5841 262.649 57.8821 262.892C59.1162 263.965 61.131 263.988 62.6406 263.673C64.3052 263.323 67.2326 261.187 67.6114 260.917C68.306 261.629 68.9661 262.45 69.5917 263.236Z" fill="#3E6CF7"/>
<path d="M273.798 266.669H17.22C17.1439 266.669 17.0709 266.639 17.017 266.585C16.9632 266.531 16.933 266.458 16.933 266.382C16.933 266.306 16.9632 266.233 17.017 266.179C17.0709 266.125 17.1439 266.095 17.22 266.095H273.798C273.874 266.095 273.947 266.125 274.001 266.179C274.055 266.233 274.085 266.306 274.085 266.382C274.085 266.458 274.055 266.531 274.001 266.585C273.947 266.639 273.874 266.669 273.798 266.669Z" fill="#263238"/>
<path d="M99.9219 104.388L84.2173 88.5568L146.927 94.8708L150.887 105.633L99.9219 104.388Z" fill="#3E6CF7"/>
<path d="M150.887 105.92L99.9162 104.675C99.88 104.675 99.8441 104.668 99.8106 104.654C99.7771 104.64 99.7467 104.62 99.721 104.594L84.0221 88.7576C83.9798 88.7158 83.9516 88.6618 83.9413 88.6032C83.931 88.5446 83.9392 88.4842 83.9647 88.4305C83.9903 88.3775 84.0316 88.3337 84.0829 88.3049C84.1342 88.2762 84.1932 88.2639 84.2517 88.2697L146.961 94.5837C147.015 94.5881 147.066 94.6078 147.109 94.6403C147.151 94.6729 147.184 94.717 147.202 94.7674L151.163 105.536C151.178 105.579 151.182 105.626 151.176 105.672C151.17 105.717 151.154 105.761 151.128 105.8C151.101 105.837 151.064 105.868 151.022 105.889C150.98 105.91 150.934 105.92 150.887 105.92V105.92ZM100.042 104.106L150.474 105.335L146.72 95.1348L84.9864 88.9184L100.042 104.106Z" fill="#263238"/>
<path d="M149.797 94.5034L99.9219 104.388L99.1356 181.883L149.435 180.569L149.797 94.5034Z" fill="#3E6CF7"/>
<path d="M99.1355 182.17C99.06 182.169 98.988 182.138 98.9346 182.084C98.9066 182.058 98.8845 182.026 98.8696 181.99C98.8548 181.955 98.8476 181.916 98.8485 181.878L99.6349 104.388C99.6349 104.322 99.6577 104.257 99.6996 104.206C99.7414 104.155 99.7997 104.12 99.8645 104.106L149.739 94.2221C149.782 94.2138 149.825 94.2152 149.867 94.2262C149.909 94.2371 149.948 94.2573 149.98 94.2853C150.013 94.3131 150.038 94.3474 150.056 94.386C150.074 94.4246 150.083 94.4666 150.084 94.5091L149.722 180.569C149.723 180.606 149.716 180.644 149.702 180.678C149.689 180.713 149.668 180.745 149.642 180.772C149.616 180.798 149.584 180.82 149.55 180.834C149.515 180.848 149.478 180.856 149.441 180.856L99.1413 182.17H99.1355ZM100.203 104.623L99.4283 181.585L149.148 180.293L149.51 94.8535L100.203 104.623Z" fill="#263238"/>
<path d="M207.57 105.8L228.079 90.2385L163.751 95.7948L150.887 105.633L207.57 105.8Z" fill="#3E6CF7"/>
<path d="M207.57 106.087L150.887 105.92C150.827 105.92 150.768 105.901 150.719 105.866C150.669 105.831 150.632 105.782 150.612 105.725C150.594 105.668 150.594 105.607 150.611 105.549C150.629 105.492 150.663 105.441 150.709 105.404L163.59 95.5653C163.634 95.533 163.685 95.5131 163.739 95.5079L228.062 89.9516C228.124 89.9442 228.187 89.9584 228.24 89.9918C228.294 90.0252 228.334 90.0759 228.354 90.1353C228.377 90.1932 228.381 90.257 228.364 90.3171C228.348 90.3772 228.312 90.4302 228.263 90.4682L207.754 106.029C207.701 106.07 207.636 106.091 207.57 106.087V106.087ZM151.731 105.346L207.472 105.513L227.115 90.5887L163.86 96.0475L151.731 105.346Z" fill="#263238"/>
<path d="M149.797 94.5034L207.57 105.8L208.259 181.815L149.435 180.569L149.797 94.5034Z" fill="#3E6CF7"/>
<path d="M208.259 182.102L149.435 180.856C149.36 180.855 149.289 180.824 149.236 180.77C149.183 180.716 149.154 180.644 149.154 180.569L149.516 94.5035C149.516 94.4617 149.525 94.4205 149.543 94.3828C149.56 94.345 149.587 94.3117 149.619 94.2853C149.651 94.2575 149.688 94.2373 149.729 94.2263C149.77 94.2154 149.813 94.214 149.854 94.2222L207.627 105.519C207.693 105.531 207.753 105.565 207.796 105.617C207.839 105.668 207.862 105.733 207.863 105.8L208.551 181.815C208.549 181.892 208.518 181.965 208.465 182.021C208.409 182.074 208.335 182.102 208.259 182.102V182.102ZM149.711 180.288L207.954 181.522L207.271 106.035L150.072 94.8536L149.711 180.288Z" fill="#263238"/>
<path d="M149.797 94.5034L171.815 65.6427L227.069 80.1305L207.57 105.8L149.797 94.5034Z" fill="#3E6CF7"/>
<path d="M207.57 106.087H207.512L149.739 94.7847C149.692 94.7759 149.647 94.7548 149.61 94.7237C149.573 94.6925 149.544 94.6522 149.527 94.6067C149.511 94.561 149.506 94.512 149.513 94.464C149.52 94.416 149.539 94.3704 149.567 94.3312L171.586 65.4705C171.62 65.426 171.667 65.3924 171.72 65.3741C171.773 65.3557 171.83 65.3533 171.884 65.3672L227.138 79.8549C227.184 79.865 227.228 79.8873 227.263 79.9196C227.298 79.9518 227.324 79.9929 227.338 80.0386C227.354 80.0826 227.358 80.1296 227.351 80.1756C227.344 80.2216 227.326 80.2652 227.298 80.3026L207.782 105.972C207.757 106.005 207.725 106.032 207.688 106.052C207.652 106.072 207.611 106.084 207.57 106.087V106.087ZM150.302 94.314L207.449 105.484L226.581 80.3026L171.924 65.9526L150.302 94.314Z" fill="#263238"/>
<path d="M99.9219 104.388L83.207 79.4588L130.711 65.9813L149.797 94.5034L99.9219 104.388Z" fill="#3E6CF7"/>
<path d="M99.9219 104.675C99.8744 104.675 99.8275 104.664 99.7855 104.642C99.7434 104.62 99.7074 104.588 99.6808 104.548L82.9717 79.6196C82.9468 79.5819 82.9308 79.5391 82.9248 79.4944C82.9188 79.4496 82.9231 79.4041 82.9373 79.3613C82.953 79.319 82.9783 79.281 83.0111 79.2501C83.044 79.2193 83.0835 79.1964 83.1267 79.1833L130.631 65.7058C130.69 65.6889 130.752 65.6909 130.81 65.7115C130.868 65.7321 130.918 65.7703 130.952 65.8206L150.032 94.3484C150.059 94.3869 150.075 94.4314 150.08 94.4779C150.086 94.5244 150.079 94.5714 150.061 94.6147C150.044 94.658 150.015 94.6963 149.979 94.7259C149.943 94.7556 149.9 94.7758 149.854 94.7847L99.9736 104.669L99.9219 104.675ZM83.6662 79.6253L100.054 104.072L149.32 94.314L130.591 66.32L83.6662 79.6253Z" fill="#263238"/>
<path d="M99.1356 181.883L158.579 183.353L207.455 181.315L149.435 180.569L99.1356 181.883Z" fill="#263238"/>
<path d="M158.59 183.64L99.1298 182.17C99.0552 182.168 98.9845 182.136 98.9322 182.083C98.8799 182.029 98.85 181.958 98.8486 181.883C98.8486 181.808 98.878 181.736 98.9306 181.683C98.9832 181.629 99.0547 181.598 99.1298 181.596L149.429 180.282L207.461 181.028C207.535 181.031 207.606 181.062 207.659 181.116C207.711 181.169 207.741 181.24 207.742 181.315C207.742 181.389 207.714 181.461 207.662 181.514C207.611 181.568 207.541 181.599 207.467 181.602L158.59 183.64ZM110.443 181.872L158.585 183.066L196.916 181.47L149.429 180.856L110.443 181.872Z" fill="#263238"/>
<path d="M171.718 151.978V142.955C173.835 141.357 175.793 139.56 177.567 137.588C179.257 135.73 180.649 133.621 181.694 131.337C182.708 129.088 183.225 126.646 183.209 124.179C183.209 122.348 182.842 120.959 182.119 120.006C181.724 119.518 181.223 119.127 180.654 118.861C180.085 118.596 179.463 118.463 178.835 118.474C178.289 118.4 177.733 118.45 177.208 118.621C176.683 118.791 176.204 119.078 175.805 119.458C175.406 119.839 175.097 120.305 174.903 120.821C174.708 121.337 174.632 121.89 174.68 122.44C174.668 123.108 174.751 123.775 174.926 124.42C175.087 124.994 175.265 125.614 175.455 126.28L165.794 128.002C165.475 126.983 165.216 125.946 165.019 124.897C164.831 123.882 164.737 122.852 164.738 121.82C164.738 117.733 165.972 114.584 168.44 112.372C170.908 110.16 174.444 109.165 179.048 109.387C183.751 109.605 187.371 111.021 189.908 113.635C192.445 116.248 193.714 119.857 193.714 124.46C193.743 127.241 193.24 130.002 192.233 132.594C191.214 135.135 189.772 137.486 187.968 139.545C186.006 141.781 183.797 143.787 181.384 145.526V152.414L171.718 151.978ZM171.368 166.833V156.61L181.797 157.11V167.332L171.368 166.833Z" fill="white"/>
<path d="M103.286 138.374C103.442 128.834 103.599 119.292 103.756 109.749L105.972 109.313C106.332 115.301 106.695 121.286 107.063 127.267C107.579 121.11 108.09 114.953 108.595 108.796L110.736 108.371L110.65 137.473L109.123 137.662V118.014C108.63 124.627 108.132 131.236 107.631 137.84L106.322 138.001C105.939 131.523 105.545 125.044 105.14 118.565C105.032 125.101 104.921 131.641 104.807 138.185L103.286 138.374ZM112.074 137.301L112.332 108.055L114.41 107.648L114.163 137.042L112.074 137.301ZM118.388 136.928C118.074 136.964 117.756 136.907 117.475 136.763C117.194 136.618 116.963 136.394 116.809 136.118C116.298 135.224 115.979 134.233 115.873 133.208C115.642 131.517 115.531 129.812 115.54 128.105L117.354 126.957C117.354 128.174 117.395 129.184 117.463 129.994C117.488 130.6 117.594 131.201 117.779 131.779C117.923 132.158 118.106 132.353 118.324 132.307C118.543 132.261 118.784 132.003 118.898 131.498C119.008 130.93 119.062 130.354 119.059 129.776C119.09 128.735 118.994 127.694 118.772 126.676C118.568 125.85 118.301 125.04 117.974 124.254C117.555 123.249 117.349 122.744 116.93 121.745C116.525 120.785 116.221 119.784 116.023 118.761C115.768 117.364 115.658 115.944 115.695 114.524C115.641 112.581 115.906 110.642 116.482 108.784C116.987 107.384 117.67 106.598 118.531 106.425C118.766 106.371 119.012 106.388 119.237 106.475C119.463 106.562 119.656 106.715 119.794 106.913C120.176 107.471 120.431 108.106 120.54 108.773C120.728 109.637 120.849 110.514 120.902 111.396C120.965 112.355 121.005 113.308 121.011 114.266L119.22 115.357C119.22 114.45 119.197 113.658 119.151 112.98C119.141 112.45 119.07 111.922 118.939 111.408C118.83 111.035 118.657 110.874 118.428 110.914C118.198 110.954 117.997 111.258 117.854 111.804C117.729 112.387 117.666 112.981 117.664 113.577C117.634 114.429 117.709 115.281 117.888 116.114C118.062 116.793 118.285 117.459 118.554 118.106L119.57 120.58C120.036 121.72 120.4 122.9 120.655 124.105C120.984 125.777 121.126 127.481 121.08 129.184C121.078 130.475 120.959 131.762 120.724 133.03C120.561 134 120.241 134.936 119.777 135.803C119.653 136.085 119.465 136.335 119.226 136.531C118.988 136.726 118.706 136.862 118.405 136.928H118.388ZM123.112 135.946C123.177 127.451 123.238 118.952 123.295 110.449L121.711 110.742C121.711 108.922 121.711 108.015 121.745 106.196L126.992 105.163L126.963 109.755L125.402 110.047C125.344 118.588 125.285 127.131 125.224 135.676L123.112 135.946ZM127.704 135.372C127.772 125.239 127.839 115.098 127.904 104.95L132.376 104.066C132.376 105.788 132.376 106.661 132.376 108.394L129.994 108.836C129.994 112.085 129.959 113.704 129.942 116.952L131.779 116.643C131.779 118.365 131.779 119.26 131.779 121.005L129.936 121.292L129.879 130.872L132.29 130.556C132.29 132.278 132.29 133.105 132.29 134.804L127.704 135.372ZM133.277 134.695L133.455 103.871L136.118 103.349C136.422 103.273 136.739 103.266 137.046 103.329C137.353 103.391 137.642 103.522 137.892 103.71C138.386 104.083 138.759 104.858 139.04 106.006C139.338 107.636 139.464 109.293 139.413 110.948C139.413 112.234 139.371 113.382 139.287 114.392C139.228 115.284 139.098 116.169 138.897 117.039C138.749 117.705 138.485 118.341 138.116 118.916C138.655 124.908 138.925 127.91 139.465 133.943L137.312 134.207C136.87 128.628 136.646 125.844 136.204 120.293L135.47 120.408C135.441 126.022 135.424 128.829 135.395 134.442L133.277 134.695ZM135.476 116.654L136.084 116.551C136.259 116.518 136.423 116.444 136.563 116.334C136.703 116.224 136.815 116.082 136.888 115.919C137.12 115.42 137.262 114.884 137.307 114.335C137.396 113.492 137.44 112.645 137.439 111.798C137.473 110.713 137.393 109.628 137.198 108.561C137.025 107.837 136.704 107.522 136.233 107.608L135.521 107.746C135.533 111.316 135.521 113.078 135.504 116.665L135.476 116.654ZM141.847 133.644C141.847 128.656 141.887 126.182 141.91 121.177C141.271 114.978 140.632 108.781 139.993 102.585L141.962 102.195C142.381 106.534 142.587 108.71 143.012 113.072C143.443 108.566 143.655 106.305 144.086 101.776L145.991 101.403C145.302 107.889 144.614 114.379 143.925 120.873C143.925 125.884 143.925 128.387 143.873 133.398L141.847 133.644ZM114.226 174.674C114.306 164.866 114.389 155.057 114.473 145.245L117.085 144.981C117.51 144.932 117.941 145.002 118.33 145.182C118.768 145.429 119.119 145.806 119.335 146.261C119.679 146.985 119.9 147.761 119.989 148.557C120.156 149.839 120.225 151.133 120.196 152.426C120.197 153.458 120.13 154.49 119.995 155.514C119.911 156.216 119.734 156.903 119.467 157.557C119.306 157.983 119.02 158.349 118.646 158.608C118.878 158.716 119.086 158.87 119.258 159.06C119.429 159.25 119.561 159.473 119.645 159.715C119.948 160.482 120.141 161.288 120.219 162.109C120.36 163.317 120.42 164.533 120.397 165.748C120.398 167.058 120.321 168.368 120.167 169.669C120.075 170.603 119.882 171.525 119.593 172.418C119.397 173.023 119.069 173.578 118.634 174.043C118.29 174.397 117.82 174.603 117.326 174.617L114.226 174.674ZM116.476 156.978L116.998 156.937C117.17 156.931 117.337 156.88 117.483 156.79C117.629 156.699 117.749 156.572 117.831 156.421C118.066 155.974 118.206 155.483 118.244 154.98C118.331 154.218 118.373 153.451 118.37 152.684C118.39 151.958 118.342 151.232 118.227 150.514C118.18 150.095 118.017 149.698 117.756 149.366C117.652 149.256 117.523 149.173 117.381 149.123C117.238 149.073 117.085 149.058 116.935 149.079L116.551 149.114C116.522 152.265 116.522 153.832 116.476 156.978ZM116.367 170.38H116.941C117.469 170.38 117.836 169.967 118.043 169.204C118.283 168.072 118.392 166.916 118.37 165.76C118.387 164.824 118.347 163.889 118.25 162.959C118.211 162.428 118.061 161.911 117.808 161.443C117.725 161.298 117.603 161.179 117.456 161.101C117.309 161.023 117.142 160.988 116.975 161.001L116.43 161.036C116.413 164.772 116.401 166.638 116.367 170.38V170.38ZM124.449 174.806C124.07 174.811 123.698 174.705 123.379 174.501C123.06 174.297 122.807 174.004 122.652 173.658C122.135 172.607 121.822 171.468 121.728 170.3C121.532 168.555 121.448 166.798 121.476 165.042L121.562 153.872C121.556 152.107 121.664 150.343 121.883 148.591C122.002 147.395 122.332 146.228 122.859 145.147C123.022 144.79 123.273 144.481 123.588 144.247C123.903 144.013 124.272 143.863 124.661 143.81C125.028 143.769 125.399 143.842 125.723 144.02C126.046 144.198 126.307 144.471 126.469 144.803C127.005 145.825 127.331 146.943 127.428 148.092C127.628 149.847 127.713 151.613 127.681 153.379C127.681 157.913 127.64 160.18 127.606 164.715C127.611 166.507 127.504 168.298 127.285 170.076C127.169 171.274 126.836 172.441 126.303 173.52C126.146 173.887 125.889 174.202 125.561 174.43C125.233 174.657 124.848 174.787 124.449 174.806V174.806ZM124.478 170.369C124.747 170.369 124.954 170.174 125.052 169.795C125.203 169.32 125.294 168.829 125.321 168.331C125.367 167.717 125.39 167.063 125.396 166.368C125.436 160.628 125.453 157.787 125.494 152.064C125.494 151.37 125.494 150.721 125.442 150.13C125.425 149.648 125.344 149.172 125.201 148.712C125.075 148.362 124.874 148.201 124.627 148.224C124.38 148.247 124.179 148.448 124.053 148.798C123.906 149.271 123.817 149.761 123.789 150.256C123.743 150.83 123.72 151.502 123.714 152.196C123.674 157.89 123.651 160.737 123.611 166.437C123.611 167.132 123.611 167.78 123.657 168.383C123.672 168.871 123.751 169.356 123.892 169.824C124.018 170.199 124.214 170.38 124.478 170.369ZM128.077 174.295C128.8 168.827 129.515 163.357 130.223 157.884C129.477 152.236 129.075 149.429 128.352 143.839L130.338 143.638C130.809 147.11 131.038 148.85 131.486 152.345C131.922 148.781 132.135 146.99 132.571 143.408L134.339 143.23C133.685 148.545 133.026 153.863 132.364 159.182C133.151 165.128 133.547 168.119 134.345 174.106L132.376 174.157C131.859 170.3 131.595 168.371 131.079 164.537C130.579 168.423 130.332 170.363 129.833 174.226L128.077 174.295Z" fill="white"/>
<path d="M146.548 68.9833V59.96C148.423 57.9823 150.139 55.8596 151.68 53.6116C153.163 51.4513 154.376 49.1167 155.29 46.6604C156.173 44.2896 156.624 41.7799 156.622 39.2501C156.622 37.4209 156.302 36.0816 155.663 35.2321C155.024 34.3826 154.067 34.0573 152.793 34.2563C152.273 34.3167 151.77 34.4803 151.313 34.7375C150.857 34.9948 150.457 35.3405 150.135 35.7544C149.454 36.6667 149.106 37.7849 149.148 38.9229C149.137 39.5763 149.211 40.2283 149.366 40.863L149.831 42.6367L141.365 45.9888C141.077 45.0238 140.847 44.0424 140.676 43.05C140.509 42.0484 140.427 41.0346 140.429 40.0192C140.429 35.9324 141.51 32.5745 143.672 29.9455C145.834 27.3166 148.936 25.7247 152.977 25.1699C157.09 24.6035 160.263 25.4109 162.494 27.5921C164.725 29.7733 165.836 33.1676 165.829 37.7749C165.842 40.6119 165.404 43.4329 164.531 46.1323C163.637 48.8472 162.38 51.4287 160.795 53.8067C159.095 56.3518 157.16 58.731 155.014 60.9128V67.8008L146.548 68.9833ZM146.238 83.9073V73.6786L155.388 72.4158V82.656L146.238 83.9073Z" fill="#263238"/>
<path d="M198.535 42.7285H180.81C180.734 42.7285 180.661 42.6983 180.607 42.6445C180.553 42.5907 180.523 42.5177 180.523 42.4415C180.523 42.3654 180.553 42.2924 180.607 42.2386C180.661 42.1848 180.734 42.1545 180.81 42.1545H198.552C198.628 42.1545 198.701 42.1848 198.755 42.2386C198.809 42.2924 198.839 42.3654 198.839 42.4415C198.839 42.4805 198.83 42.5189 198.814 42.5545C198.799 42.5901 198.776 42.6222 198.747 42.649C198.719 42.6757 198.686 42.6965 198.649 42.7102C198.613 42.7238 198.574 42.7301 198.535 42.7285V42.7285Z" fill="#263238"/>
<path d="M129.075 42.7285H111.356C111.28 42.7285 111.207 42.6983 111.153 42.6445C111.099 42.5907 111.069 42.5177 111.069 42.4415C111.069 42.3654 111.099 42.2924 111.153 42.2386C111.207 42.1848 111.28 42.1545 111.356 42.1545H129.098C129.174 42.1545 129.247 42.1848 129.301 42.2386C129.355 42.2924 129.385 42.3654 129.385 42.4415C129.385 42.4812 129.377 42.5205 129.361 42.5569C129.346 42.5934 129.322 42.6261 129.293 42.653C129.264 42.68 129.23 42.7007 129.192 42.7137C129.155 42.7266 129.115 42.7317 129.075 42.7285Z" fill="#263238"/>
<path d="M175.248 32.6836C175.188 32.6836 175.129 32.6646 175.08 32.6294C175.031 32.5942 174.995 32.5445 174.976 32.4873C174.957 32.4302 174.956 32.3685 174.974 32.311C174.992 32.2535 175.028 32.2031 175.076 32.167L186.033 23.9473C186.095 23.9031 186.171 23.8843 186.246 23.895C186.321 23.9057 186.389 23.945 186.435 24.0047C186.481 24.0656 186.5 24.1421 186.49 24.2175C186.479 24.2928 186.439 24.3608 186.378 24.4065L175.42 32.6262C175.371 32.6646 175.31 32.6849 175.248 32.6836V32.6836Z" fill="#263238"/>
<path d="M130.51 63.714C130.45 63.714 130.391 63.695 130.343 63.6598C130.294 63.6246 130.257 63.5749 130.238 63.5177C130.219 63.4606 130.218 63.3989 130.236 63.3414C130.254 63.2839 130.29 63.2335 130.338 63.1974L141.296 54.9777C141.357 54.932 141.433 54.9124 141.509 54.9232C141.584 54.9339 141.652 54.9742 141.698 55.0351C141.742 55.0965 141.761 55.1726 141.75 55.2476C141.739 55.3225 141.7 55.3903 141.64 55.4369L130.683 63.6566C130.632 63.6916 130.572 63.7115 130.51 63.714V63.714Z" fill="#263238"/>
<path d="M135.757 26.978C135.695 26.9755 135.635 26.9556 135.585 26.9206L124.633 18.7009C124.581 18.653 124.548 18.5876 124.541 18.5172C124.535 18.4468 124.554 18.3764 124.596 18.3195C124.638 18.2626 124.7 18.2232 124.769 18.2089C124.838 18.1945 124.91 18.2062 124.971 18.2417L135.929 26.4614C135.959 26.484 135.984 26.5123 136.004 26.5448C136.023 26.5772 136.035 26.6131 136.041 26.6504C136.046 26.6877 136.044 26.7257 136.035 26.7622C136.025 26.7987 136.009 26.833 135.986 26.8632C135.96 26.8995 135.926 26.9289 135.886 26.949C135.846 26.969 135.801 26.9789 135.757 26.978V26.978Z" fill="#263238"/>
<path d="M180.5 58.0199C180.438 58.0203 180.377 58.0001 180.328 57.9625L169.37 49.7485C169.311 49.702 169.271 49.6341 169.261 49.5592C169.25 49.4843 169.269 49.4081 169.313 49.3467C169.358 49.2858 169.426 49.2456 169.502 49.2348C169.577 49.2241 169.654 49.2437 169.715 49.2893L180.672 57.5033C180.733 57.5489 180.773 57.6169 180.784 57.6923C180.795 57.7676 180.775 57.8442 180.73 57.9051C180.703 57.9404 180.668 57.9691 180.628 57.989C180.588 58.0089 180.544 58.0194 180.5 58.0199V58.0199Z" fill="#263238"/>
<path d="M153.792 21.6168C153.716 21.6168 153.643 21.5866 153.589 21.5327C153.535 21.4789 153.505 21.4059 153.505 21.3298V9.45949C153.505 9.38337 153.535 9.31037 153.589 9.25655C153.643 9.20272 153.716 9.17249 153.792 9.17249C153.868 9.17249 153.941 9.20272 153.995 9.25655C154.049 9.31037 154.079 9.38337 154.079 9.45949V21.3298C154.079 21.4059 154.049 21.4789 153.995 21.5327C153.941 21.5866 153.868 21.6168 153.792 21.6168Z" fill="#263238"/>
<path d="M73.9542 157.018L79.2637 152.873L75.8598 151.496L73.9542 157.018Z" fill="#92E3A9"/>
<path d="M73.9542 157.276C73.8929 157.277 73.8329 157.259 73.782 157.224C73.7318 157.188 73.6947 157.137 73.676 157.078C73.6574 157.019 73.6583 156.956 73.6787 156.897L75.5901 151.375C75.6035 151.339 75.6241 151.305 75.6507 151.276C75.6774 151.248 75.7094 151.225 75.7451 151.209C75.7803 151.193 75.8184 151.185 75.857 151.185C75.8955 151.185 75.9337 151.193 75.9689 151.209L79.367 152.592C79.4147 152.609 79.4566 152.639 79.4881 152.679C79.5195 152.718 79.5392 152.766 79.5449 152.816C79.5526 152.866 79.5465 152.917 79.5273 152.963C79.5081 153.01 79.4765 153.05 79.4359 153.08L74.1264 157.224C74.0762 157.26 74.0157 157.278 73.9542 157.276V157.276ZM76.0378 151.852L74.5397 156.168L78.6954 152.931L76.0378 151.852Z" fill="#263238"/>
<path d="M68.5241 131.739L76.5027 148.201L73.9541 157.018L68.6389 149.785L68.5241 131.739Z" fill="#3E6CF7"/>
<path d="M73.9542 157.276C73.9087 157.276 73.8638 157.266 73.8229 157.246C73.7821 157.226 73.7464 157.197 73.7188 157.161L68.4093 149.935C68.3736 149.886 68.3535 149.828 68.3519 149.768L68.2371 131.722C68.2357 131.656 68.2574 131.592 68.2983 131.54C68.3391 131.489 68.3967 131.454 68.461 131.44C68.5236 131.425 68.5896 131.431 68.6482 131.458C68.7067 131.485 68.7541 131.532 68.7824 131.59L76.761 148.092C76.7838 148.159 76.7838 148.232 76.761 148.299L74.2125 157.11C74.1967 157.162 74.1669 157.208 74.1265 157.245C74.086 157.281 74.0363 157.306 73.9829 157.316L73.9542 157.276ZM68.9259 149.671L73.8394 156.352L76.1928 148.201L68.8169 132.984L68.9259 149.671Z" fill="#263238"/>
<path d="M71.8304 153.832L73.9542 157.018L76.5027 148.201L75.1194 146.077L71.8304 153.832Z" fill="#263238"/>
<path d="M73.9542 157.276C73.9067 157.277 73.8598 157.265 73.8177 157.243C73.7756 157.221 73.7397 157.189 73.7131 157.15L71.5893 153.964C71.5681 153.922 71.5571 153.876 71.5571 153.829C71.5571 153.782 71.5681 153.736 71.5893 153.694L74.884 145.94C74.9048 145.892 74.9382 145.85 74.9806 145.82C75.0231 145.79 75.0731 145.771 75.1251 145.767C75.177 145.763 75.2289 145.774 75.2754 145.797C75.3219 145.82 75.3612 145.855 75.3892 145.899L76.7668 148.023C76.79 148.057 76.8056 148.096 76.8125 148.136C76.8194 148.177 76.8175 148.219 76.8069 148.258L74.2584 157.069C74.2421 157.122 74.2115 157.17 74.17 157.206C74.1284 157.243 74.0776 157.267 74.023 157.276H73.9542ZM72.1518 153.775L73.8738 156.317L76.2157 148.224L75.194 146.686L72.1518 153.775Z" fill="#263238"/>
<path d="M46.8901 257.829L46.0578 261.17C46.0578 261.17 41.1443 263.891 40.7655 264.27C40.3866 264.648 40.5359 266.238 40.5359 266.238H54.5989C54.6692 265.019 54.5668 263.796 54.2947 262.605C54.0816 261.133 53.9513 259.649 53.9043 258.162L46.8901 257.829Z" fill="#263238"/>
<path d="M54.5989 266.502H40.5359C40.4639 266.501 40.3949 266.474 40.342 266.425C40.2891 266.377 40.2559 266.31 40.2489 266.238C40.2144 265.837 40.1226 264.482 40.5588 264.046C40.9951 263.61 44.7777 261.526 45.8052 260.958L46.6088 257.76C46.6247 257.696 46.6626 257.639 46.716 257.599C46.7694 257.559 46.835 257.539 46.9015 257.542L53.9216 257.852C53.9932 257.855 54.0609 257.885 54.1111 257.937C54.1612 257.988 54.1899 258.056 54.1913 258.128C54.2422 259.599 54.3706 261.067 54.5759 262.525C54.8597 263.741 54.9622 264.992 54.8801 266.238C54.8757 266.31 54.8442 266.377 54.7919 266.426C54.7396 266.475 54.6706 266.503 54.5989 266.502V266.502ZM40.8229 265.928H54.3291C54.3584 264.825 54.2524 263.723 54.0134 262.645C53.8029 261.244 53.6745 259.831 53.6288 258.415L47.1082 258.128L46.3333 261.216C46.3245 261.255 46.3077 261.291 46.284 261.322C46.2602 261.354 46.2301 261.38 46.1955 261.4C44.3128 262.444 41.2247 264.195 40.9664 264.448C40.793 264.921 40.7378 265.429 40.8056 265.928H40.8229Z" fill="#263238"/>
<path d="M40.5359 266.216H54.5989C54.5989 266.216 54.5989 265.871 54.5989 265.303H40.5129C40.5035 265.607 40.5112 265.912 40.5359 266.216V266.216Z" fill="white"/>
<path d="M54.5989 266.502H40.5359C40.464 266.501 40.395 266.474 40.342 266.425C40.2891 266.377 40.256 266.31 40.2489 266.238C40.2324 265.925 40.2324 265.611 40.2489 265.297C40.2519 265.223 40.2834 265.153 40.3369 265.102C40.3904 265.05 40.4617 265.021 40.5359 265.022H54.6161C54.6535 265.021 54.6907 265.027 54.7255 265.041C54.7603 265.055 54.792 265.076 54.8187 265.102C54.8455 265.128 54.8667 265.159 54.8812 265.194C54.8957 265.228 54.9031 265.265 54.9031 265.303C54.9031 265.877 54.9031 266.227 54.9031 266.238C54.8959 266.313 54.8602 266.382 54.8036 266.431C54.7471 266.48 54.6738 266.506 54.5989 266.502V266.502ZM40.8229 265.928H54.3291C54.3291 265.837 54.3291 265.722 54.3291 265.596H40.7942C40.7942 265.716 40.7999 265.831 40.8057 265.928H40.8229Z" fill="#263238"/>
<path d="M41.064 264.097C42.029 263.275 43.211 262.749 44.4678 262.582C46.7638 262.209 48.7785 263.036 49.232 263.489C49.5929 264.008 49.8484 264.593 49.984 265.211L40.513 265.286C40.4467 265.175 40.4085 265.05 40.4017 264.921C40.395 264.792 40.4198 264.663 40.4742 264.546C40.5285 264.429 40.6106 264.327 40.7134 264.248C40.8162 264.17 40.9366 264.118 41.064 264.097V264.097Z" fill="white"/>
<path d="M40.5129 265.596C40.4614 265.595 40.4109 265.581 40.3666 265.555C40.3222 265.529 40.2856 265.491 40.2603 265.446C40.1783 265.296 40.1288 265.129 40.115 264.958C40.1011 264.787 40.1233 264.615 40.18 264.453C40.2489 264.302 40.3514 264.168 40.4797 264.061C40.6079 263.955 40.7586 263.879 40.9204 263.839C41.9211 263.01 43.134 262.477 44.4218 262.301C46.7178 261.916 48.8703 262.726 49.4329 263.288C49.8422 263.855 50.1259 264.503 50.2652 265.188C50.2754 265.23 50.2761 265.273 50.2672 265.315C50.2582 265.356 50.2399 265.396 50.2135 265.429C50.1865 265.463 50.1524 265.49 50.1137 265.509C50.075 265.528 50.0327 265.538 49.9896 265.538L40.5129 265.619V265.596ZM45.633 262.777C45.2484 262.776 44.8644 262.806 44.485 262.869C43.2907 263.03 42.1663 263.525 41.2419 264.298C41.207 264.334 41.1634 264.359 41.1156 264.373C41.0251 264.387 40.9389 264.421 40.8634 264.472C40.7878 264.524 40.7249 264.592 40.6794 264.671C40.6441 264.784 40.6441 264.904 40.6794 265.016L49.5821 264.947C49.4769 264.495 49.2817 264.07 49.0081 263.696C48.0023 263.054 46.8252 262.734 45.633 262.777Z" fill="#263238"/>
<path d="M53.1581 260.504C53.1581 261.319 52.8711 261.979 52.521 261.979C52.1709 261.979 51.8781 261.319 51.8781 260.504C51.8781 259.689 52.1651 259.029 52.521 259.029C52.8769 259.029 53.1581 259.689 53.1581 260.504Z" fill="white"/>
<path d="M52.521 262.266C51.9068 262.266 51.5911 261.382 51.5911 260.504C51.5911 259.626 51.9068 258.742 52.521 258.742C53.1352 258.742 53.4451 259.632 53.4451 260.504C53.4451 261.377 53.1294 262.266 52.521 262.266ZM52.521 259.316C52.4292 259.316 52.1651 259.752 52.1651 260.504C52.1651 261.256 52.4292 261.681 52.521 261.692C52.6128 261.704 52.8711 261.262 52.8711 260.504C52.8711 259.747 52.6071 259.328 52.521 259.316V259.316Z" fill="#263238"/>
<path d="M81.9901 257.829L82.8224 261.147C82.8224 261.147 87.7359 263.868 88.1147 264.247C88.4936 264.626 88.3386 266.215 88.3386 266.215H74.2813C74.211 264.996 74.3134 263.773 74.5855 262.582C74.7945 261.109 74.9229 259.626 74.9701 258.139L81.9901 257.829Z" fill="#263238"/>
<path d="M88.3386 266.503H74.2814C74.2095 266.501 74.1404 266.474 74.0875 266.425C74.0346 266.377 74.0014 266.31 73.9944 266.238C73.9196 264.992 74.024 263.741 74.3043 262.525C74.5114 261.067 74.6379 259.599 74.6832 258.128C74.686 258.056 74.7159 257.987 74.767 257.936C74.8181 257.885 74.8865 257.855 74.9587 257.852L81.9787 257.542C82.0455 257.538 82.1116 257.557 82.1653 257.597C82.2189 257.637 82.2566 257.695 82.2715 257.76L83.0693 260.958C84.1025 261.532 87.9426 263.673 88.3157 264.046C88.6888 264.419 88.6658 265.837 88.6256 266.238C88.6198 266.311 88.5871 266.378 88.5339 266.427C88.4807 266.476 88.4109 266.503 88.3386 266.503ZM74.5626 265.929H88.0861C88.1544 265.429 88.0992 264.921 87.9254 264.448C87.6613 264.195 84.5789 262.444 82.6962 261.4C82.6616 261.38 82.6315 261.354 82.6077 261.322C82.584 261.291 82.5672 261.255 82.5585 261.216L81.7778 258.128L75.2572 258.415C75.2144 259.831 75.0859 261.244 74.8726 262.645C74.6307 263.722 74.5227 264.825 74.5512 265.929H74.5626Z" fill="#263238"/>
<path d="M88.3386 266.216H74.2813C74.2649 265.912 74.2649 265.607 74.2813 265.303H88.396C88.3957 265.608 88.3765 265.913 88.3386 266.216V266.216Z" fill="white"/>
<path d="M88.3386 266.503H74.2814C74.2094 266.501 74.1404 266.474 74.0875 266.425C74.0346 266.377 74.0014 266.31 73.9944 266.238C73.9785 265.927 73.9785 265.615 73.9944 265.303C73.9959 265.228 74.0268 265.156 74.0804 265.104C74.1341 265.051 74.2062 265.022 74.2814 265.022H88.396C88.4702 265.022 88.5415 265.05 88.595 265.102C88.6485 265.153 88.6801 265.223 88.683 265.297C88.7045 265.611 88.7045 265.925 88.683 266.238C88.6806 266.28 88.6693 266.32 88.65 266.356C88.6307 266.392 88.6038 266.424 88.5712 266.449C88.5385 266.474 88.5008 266.492 88.4607 266.501C88.4206 266.51 88.3789 266.511 88.3386 266.503V266.503ZM74.5626 265.929H88.0861C88.0861 265.831 88.0861 265.716 88.0861 265.596H74.5454C74.5454 265.722 74.5511 265.837 74.5511 265.929H74.5626Z" fill="#263238"/>
<path d="M87.822 264.097C86.8598 263.274 85.6794 262.748 84.4239 262.582C82.1566 262.209 80.1132 263.036 79.6597 263.489C79.2978 264.008 79.0405 264.593 78.902 265.211L88.3788 265.286C88.4451 265.174 88.4832 265.049 88.4896 264.919C88.4961 264.79 88.4707 264.661 88.4157 264.544C88.3608 264.427 88.2779 264.325 88.1744 264.247C88.0709 264.169 87.9499 264.118 87.822 264.097V264.097Z" fill="white"/>
<path d="M88.396 265.596L78.9193 265.515C78.8761 265.516 78.8334 265.506 78.7946 265.487C78.7558 265.468 78.7219 265.44 78.6954 265.406C78.6713 265.376 78.6538 265.341 78.6439 265.303C78.634 265.266 78.632 265.226 78.638 265.188C78.7778 264.51 79.0617 263.87 79.4703 263.311C80.0443 262.737 82.1853 261.939 84.4813 262.324C85.7687 262.502 86.9811 263.034 87.9827 263.862C88.1442 263.903 88.2946 263.979 88.4227 264.085C88.5509 264.191 88.6536 264.325 88.7232 264.476C88.7799 264.638 88.8021 264.81 88.7882 264.981C88.7744 265.152 88.7249 265.319 88.6428 265.469C88.6153 265.509 88.5784 265.542 88.5353 265.564C88.4923 265.586 88.4444 265.597 88.396 265.596V265.596ZM79.2981 264.947L88.2009 265.016C88.2361 264.904 88.2361 264.784 88.2009 264.672C88.1546 264.593 88.0916 264.525 88.0162 264.473C87.9407 264.422 87.8548 264.388 87.7646 264.373C87.7162 264.361 87.6723 264.335 87.6383 264.298C86.7063 263.531 85.5758 263.043 84.378 262.892C82.1911 262.525 80.2395 263.346 79.8664 263.719C79.589 264.085 79.3861 264.502 79.2694 264.947H79.2981Z" fill="#263238"/>
<path d="M75.7164 260.504C75.7164 261.319 76.0034 261.979 76.3592 261.979C76.7151 261.979 77.0021 261.319 77.0021 260.504C77.0021 259.689 76.7151 259.029 76.3592 259.029C76.0034 259.029 75.7164 259.689 75.7164 260.504Z" fill="white"/>
<path d="M76.342 262.266C75.7335 262.266 75.4121 261.382 75.4121 260.504C75.4121 259.626 75.7335 258.742 76.342 258.742C76.9504 258.742 77.2719 259.632 77.2719 260.504C77.2719 261.377 76.9676 262.266 76.342 262.266ZM76.342 259.316C76.2501 259.316 75.9861 259.752 75.9861 260.504C75.9861 261.256 76.2501 261.681 76.342 261.692C76.4338 261.704 76.6979 261.262 76.6979 260.504C76.6979 259.747 76.451 259.328 76.342 259.316V259.316Z" fill="#263238"/>
<path d="M46.7293 177.756L46.2644 185.086L46.8901 257.829L53.9101 258.139L60.9244 190.235L61.86 189.919L74.9701 258.139L81.9902 257.829L78.8619 208.947L74.1493 175.219L46.7293 177.756Z" fill="white"/>
<path d="M53.9101 258.426L46.8901 258.116C46.817 258.112 46.7483 258.08 46.6982 258.026C46.648 257.973 46.6202 257.903 46.6203 257.829L45.9774 185.086L46.4481 177.733C46.452 177.666 46.4804 177.602 46.5278 177.553C46.5753 177.505 46.6387 177.475 46.7064 177.469L74.1206 174.932C74.1941 174.926 74.2673 174.948 74.325 174.994C74.3828 175.04 74.4206 175.106 74.4306 175.179L79.1489 208.936L82.2772 257.835C82.2792 257.873 82.2737 257.911 82.2609 257.946C82.2481 257.982 82.2282 258.014 82.2026 258.042C82.1511 258.1 82.0789 258.135 82.0017 258.139L74.9816 258.449C74.9135 258.452 74.8467 258.43 74.793 258.388C74.7394 258.346 74.7025 258.286 74.6889 258.22L61.6419 190.298L61.1942 190.448L54.1914 258.18C54.1829 258.248 54.1496 258.311 54.0977 258.356C54.0459 258.402 53.9791 258.427 53.9101 258.426V258.426ZM61.86 189.632C61.9122 189.634 61.9633 189.648 62.0092 189.673C62.0443 189.693 62.0743 189.722 62.0972 189.755C62.12 189.789 62.1351 189.828 62.1413 189.868L75.194 257.841L81.6745 257.554L78.5634 208.97L73.891 175.529L46.9934 178.015L46.5399 185.104L47.1713 257.554L53.6518 257.841L60.6431 190.201C60.6487 190.147 60.6694 190.095 60.7029 190.053C60.7365 190.01 60.7814 189.978 60.8325 189.96L61.7739 189.65L61.86 189.632Z" fill="#263238"/>
<path d="M61.5443 185.402H61.4639C61.4038 185.384 61.3513 185.346 61.3141 185.296C61.2769 185.245 61.257 185.184 61.2573 185.121V179.771C61.2573 179.695 61.2875 179.622 61.3413 179.568C61.3951 179.514 61.4681 179.484 61.5443 179.484C61.6199 179.486 61.6921 179.516 61.7456 179.57C61.7991 179.623 61.8298 179.695 61.8313 179.771V184.088L62.721 182.601L62.9563 179.025C62.9577 178.987 62.9668 178.95 62.9831 178.915C62.9993 178.881 63.0223 178.85 63.0508 178.825C63.0792 178.8 63.1124 178.781 63.1485 178.769C63.1845 178.757 63.2227 178.752 63.2605 178.755C63.2988 178.757 63.3362 178.767 63.3706 178.784C63.4049 178.801 63.4356 178.824 63.4608 178.853C63.4859 178.882 63.505 178.916 63.5169 178.952C63.5289 178.988 63.5334 179.027 63.5303 179.065L63.2892 182.71C63.2855 182.755 63.2717 182.798 63.249 182.836L61.7853 185.27C61.7598 185.311 61.7242 185.344 61.682 185.367C61.6398 185.391 61.5924 185.402 61.5443 185.402V185.402Z" fill="#263238"/>
<path d="M71.176 156.536C71.176 156.536 68.7709 132.56 68.5356 131.739C68.3003 130.918 54.9433 130.688 53.8871 130.803C52.831 130.918 51.5452 130.918 51.5452 130.918C51.5452 130.918 35.72 137.806 35.4732 138.535L41.0984 151.077C41.0984 151.077 46.0233 166.075 46.0233 167.602C46.0233 169.129 46.494 178.514 46.494 178.514C46.494 178.514 55.5173 179.806 63.0137 178.049C70.5102 176.293 74.1493 175.237 74.1493 175.237L71.176 156.536Z" fill="#3E6CF7"/>
<path d="M53.8527 179.237C51.3794 179.241 48.9082 179.089 46.4538 178.784C46.3878 178.775 46.327 178.743 46.2819 178.693C46.2369 178.644 46.2104 178.581 46.207 178.514C46.207 178.129 45.7363 169.112 45.7363 167.608C45.7363 166.391 42.1948 155.33 40.8286 151.174L35.2149 138.661C35.1893 138.595 35.1893 138.521 35.2149 138.455C35.456 137.737 45.478 133.289 51.4304 130.665C51.4682 130.657 51.5074 130.657 51.5452 130.665C51.5452 130.665 52.831 130.665 53.8412 130.551C53.9847 130.551 68.4495 130.465 68.7997 131.699C69.035 132.514 71.199 154.033 71.4458 156.53L74.4306 175.208C74.4419 175.277 74.4277 175.347 74.3908 175.406C74.3538 175.466 74.2965 175.509 74.2297 175.529C74.1895 175.529 70.5044 176.603 63.0826 178.342C60.0493 178.985 56.9532 179.286 53.8527 179.237V179.237ZM46.7638 178.244C48.2332 178.428 56.2578 179.318 62.9506 177.751C69.2646 176.264 72.8923 175.271 73.8222 175.013L70.8775 156.576C69.9304 147.162 68.4782 133.042 68.2601 131.894C67.2097 131.262 55.0581 130.981 53.9101 131.113C52.9687 131.216 51.8667 131.228 51.6141 131.228C45.92 133.685 36.9427 137.76 35.8176 138.598L41.3625 150.962C41.5748 151.605 46.3103 166.053 46.3103 167.608C46.3103 168.963 46.6949 176.792 46.7638 178.244Z" fill="#263238"/>
<path d="M44.1636 160.72L70.8488 155.112L70.6307 153.792C70.6307 153.792 70.5963 153.356 70.5274 152.609L43.4116 158.309C43.6642 159.09 43.9167 159.905 44.1636 160.72Z" fill="#263238"/>
<path d="M74.1493 175.219L71.5147 159.147L45.3116 164.572C45.6322 165.562 45.8703 166.578 46.0233 167.608C46.0233 169.129 46.494 178.514 46.494 178.514C46.494 178.514 55.5173 179.806 63.0137 178.049C70.5102 176.293 74.1493 175.219 74.1493 175.219Z" fill="#263238"/>
<path d="M53.8527 179.237C51.3793 179.241 48.9082 179.089 46.4538 178.784C46.3877 178.775 46.3269 178.743 46.2819 178.693C46.2368 178.644 46.2104 178.581 46.207 178.514C46.207 178.129 45.7363 169.112 45.7363 167.608C45.591 166.61 45.3567 165.626 45.036 164.669C45.0244 164.632 45.0215 164.592 45.0274 164.553C45.0334 164.515 45.0481 164.478 45.0705 164.445C45.0897 164.411 45.1161 164.382 45.1478 164.359C45.1795 164.336 45.2158 164.321 45.2542 164.313L71.4573 158.883C71.4954 158.876 71.5346 158.876 71.5726 158.884C71.6106 158.892 71.6467 158.907 71.6787 158.929C71.7108 158.951 71.7381 158.979 71.7593 159.011C71.7804 159.044 71.7948 159.08 71.8017 159.119L74.4306 175.191C74.4419 175.259 74.4277 175.33 74.3907 175.389C74.3538 175.448 74.2965 175.492 74.2297 175.512C74.1895 175.512 70.5044 176.585 63.0826 178.325C60.0499 178.974 56.9538 179.28 53.8527 179.237V179.237ZM46.7638 178.244C48.2332 178.428 56.2577 179.318 62.9506 177.751C69.2646 176.264 72.8923 175.277 73.8221 175.013L71.2793 159.515L45.6732 164.818C45.9821 165.724 46.1956 166.659 46.3103 167.608C46.3103 168.963 46.6949 176.792 46.7638 178.244Z" fill="#263238"/>
<path d="M53.8757 130.803C52.8195 130.918 51.5337 130.918 51.5337 130.918C51.5337 130.918 48.5662 132.215 45.1796 133.742L57.8937 144.011C57.8937 144.011 61.9978 131.486 61.8083 130.958C58.4562 130.826 54.3808 130.746 53.8757 130.803Z" fill="#263238"/>
<path d="M57.8937 144.298C57.8285 144.3 57.765 144.278 57.7157 144.235L45.0016 133.966C44.9629 133.936 44.9325 133.896 44.9134 133.851C44.8943 133.806 44.8871 133.756 44.8926 133.708C44.9006 133.659 44.9205 133.613 44.9505 133.574C44.9806 133.535 45.0198 133.504 45.0648 133.484C48.4055 131.974 51.3788 130.671 51.419 130.66C51.4568 130.651 51.4959 130.651 51.5337 130.66C51.5337 130.66 52.8195 130.66 53.8297 130.545C54.4037 130.487 58.6915 130.579 61.8083 130.7C61.8661 130.702 61.9221 130.721 61.9691 130.755C62.0161 130.788 62.052 130.835 62.0724 130.889C62.2618 131.429 59.7018 139.419 58.1577 144.131C58.144 144.175 58.1195 144.215 58.0864 144.247C58.0533 144.28 58.0127 144.303 57.9683 144.315C57.9426 144.314 57.9174 144.308 57.8937 144.298V144.298ZM45.7249 133.817L57.7789 143.529C59.2024 139.178 61.2688 132.623 61.5328 131.234C58.2438 131.107 54.4095 131.033 53.9331 131.09C52.9917 131.194 51.8896 131.205 51.6371 131.205C51.1893 131.383 48.6408 132.496 45.7249 133.817Z" fill="#263238"/>
<path d="M58.3299 126.82C58.3299 126.82 59.0129 131.733 59.3631 132.904C59.7132 134.075 56.9236 140.63 56.9236 140.63C56.9236 140.63 50.6096 136.566 49.7715 134.574C48.9335 132.583 47.068 125.649 47.068 125.649C47.068 125.649 53.0548 128.691 58.3299 126.82Z" fill="white"/>
<path d="M56.9236 140.894C56.8686 140.894 56.8148 140.878 56.7686 140.848C56.5046 140.682 50.3513 136.715 49.5075 134.66C48.6637 132.605 46.8786 126.004 46.7982 125.706C46.7845 125.652 46.7863 125.595 46.8036 125.543C46.8209 125.49 46.8529 125.443 46.8958 125.408C46.9383 125.372 46.9904 125.35 47.0456 125.343C47.1007 125.337 47.1565 125.348 47.2058 125.373C47.2689 125.402 53.1409 128.341 58.2323 126.521C58.2709 126.503 58.313 126.493 58.3557 126.493C58.3984 126.493 58.4406 126.503 58.4791 126.521C58.5145 126.544 58.5446 126.575 58.5673 126.61C58.5901 126.646 58.605 126.686 58.6112 126.728C58.6112 126.774 59.3 131.635 59.6386 132.772C59.9773 133.908 57.6583 139.562 57.1876 140.664C57.1711 140.704 57.146 140.739 57.1143 140.768C57.0825 140.797 57.0449 140.818 57.004 140.831L56.9236 140.894ZM47.5157 126.165C47.9922 127.887 49.3755 132.835 50.0413 134.442C50.7072 136.049 55.5575 139.361 56.7916 140.182C57.8535 137.668 59.3114 133.742 59.0876 132.996C58.7834 131.986 58.2553 128.352 58.0946 127.204C53.7494 128.576 49.1172 126.854 47.5157 126.165Z" fill="#263238"/>
<path d="M47.068 125.649C47.068 125.649 47.4928 127.227 48.0323 129.093C48.3136 129.253 48.658 129.431 49.077 129.667C51.2594 130.822 53.7445 131.277 56.1946 130.97C56.7059 130.884 57.1901 130.68 57.6087 130.374C58.0272 130.068 58.3685 129.669 58.6054 129.207C58.4389 127.899 58.3184 126.848 58.3184 126.848C53.0548 128.691 47.068 125.649 47.068 125.649Z" fill="#263238"/>
<path d="M54.6678 131.331C52.6793 131.31 50.724 130.818 48.9622 129.896C48.5375 129.684 48.1931 129.5 47.9061 129.322C47.8718 129.305 47.8417 129.281 47.8179 129.252C47.7941 129.222 47.7771 129.187 47.7683 129.15C47.2287 127.284 46.7982 125.706 46.7982 125.706C46.7845 125.652 46.7863 125.595 46.8036 125.543C46.8209 125.49 46.8529 125.443 46.8958 125.408C46.9383 125.372 46.9904 125.35 47.0456 125.343C47.1007 125.337 47.1565 125.348 47.2058 125.373C47.2689 125.402 53.1409 128.341 58.2323 126.521C58.2709 126.503 58.313 126.493 58.3557 126.493C58.3984 126.493 58.4406 126.503 58.4791 126.521C58.5163 126.544 58.5477 126.575 58.5706 126.611C58.5936 126.648 58.6075 126.69 58.6112 126.733C58.6112 126.733 58.7317 127.784 58.8982 129.093C58.9106 129.156 58.8983 129.222 58.8637 129.276C58.6135 129.785 58.2463 130.227 57.7924 130.566C57.3384 130.905 56.8105 131.132 56.252 131.228C55.7268 131.297 55.1976 131.332 54.6678 131.331V131.331ZM48.2849 128.897L49.2148 129.38C51.3433 130.516 53.7722 130.963 56.1659 130.66C56.6201 130.587 57.0511 130.41 57.4248 130.142C57.7985 129.874 58.1045 129.523 58.3184 129.116C58.2151 128.306 58.129 127.6 58.0831 127.204C53.7436 128.576 49.1115 126.854 47.5157 126.165C47.6822 126.774 47.9635 127.778 48.2849 128.897V128.897Z" fill="#263238"/>
<path d="M55.3164 111.436C56.1887 113.202 57.1782 114.906 58.2782 116.539C59.4664 118.078 61.3663 121.516 60.534 123.536C59.7017 125.557 59.1622 128.984 56.516 129.345C54.0547 129.659 51.5564 129.204 49.364 128.042C47.2287 126.975 46.9934 126.619 46.9934 126.619C45.9774 126.617 44.9826 126.328 44.1234 125.786C43.0557 124.96 40.9204 122.342 41.5117 120.092C42.1029 117.842 43.5264 117.607 43.5264 117.607C43.5264 117.607 40.5646 116.419 42.4588 113.451C44.353 110.484 48.3939 109.433 50.2881 109.433C52.1823 109.433 55.3164 111.436 55.3164 111.436Z" fill="white"/>
<path d="M54.9663 129.724C52.9666 129.705 50.9997 129.213 49.2263 128.289C48.3865 127.915 47.5929 127.445 46.8614 126.888C45.8406 126.869 44.8459 126.563 43.9914 126.005C42.8778 125.138 40.645 122.423 41.2821 120.012C41.3759 119.514 41.5691 119.039 41.8501 118.617C42.1312 118.195 42.4944 117.834 42.918 117.555C42.3545 117.203 41.9259 116.671 41.7011 116.046C41.5836 115.572 41.5742 115.078 41.6736 114.6C41.7729 114.122 41.9785 113.672 42.2751 113.285C44.221 110.254 48.2562 109.123 50.3456 109.123C52.3086 109.123 55.3566 111.103 55.5116 111.184C55.556 111.212 55.5918 111.251 55.6149 111.299C56.4793 113.046 57.4592 114.733 58.548 116.35C59.5066 117.595 61.7854 121.332 60.844 123.634C60.689 124.013 60.5398 124.455 60.3848 124.92C59.7247 126.871 58.9039 129.305 56.5849 129.621C56.0483 129.691 55.5075 129.726 54.9663 129.724V129.724ZM47.2517 126.446C47.9462 126.983 48.7062 127.428 49.5133 127.772C51.6418 128.909 54.0707 129.356 56.4644 129.052C58.4275 128.783 59.1507 126.636 59.7936 124.736C59.9543 124.265 60.1036 123.812 60.27 123.41C61.0162 121.596 59.3057 118.33 58.0544 116.7C56.9529 115.084 55.967 113.392 55.104 111.637C54.662 111.356 51.9929 109.709 50.3456 109.709C48.6982 109.709 44.6457 110.661 42.763 113.606C42.5033 113.886 42.3175 114.226 42.2223 114.596C42.1272 114.965 42.1257 115.353 42.218 115.723C42.3103 116.094 42.4935 116.435 42.751 116.717C43.0086 116.999 43.3323 117.212 43.6929 117.337C43.7505 117.361 43.7989 117.403 43.8309 117.457C43.863 117.511 43.8769 117.573 43.8708 117.636C43.8643 117.698 43.8378 117.756 43.7954 117.801C43.7529 117.847 43.6968 117.877 43.6355 117.888C43.5838 117.888 42.3784 118.141 41.8446 120.184C41.3108 122.228 43.2165 124.696 44.353 125.58C45.1574 126.076 46.0826 126.342 47.0278 126.349C47.0745 126.349 47.1204 126.36 47.1614 126.382C47.2025 126.404 47.2375 126.436 47.2632 126.475L47.2517 126.446Z" fill="#263238"/>
<path d="M49.4099 115.673C49.3338 115.682 49.2572 115.66 49.1969 115.613C49.1366 115.565 49.0976 115.496 49.0885 115.42C49.0794 115.344 49.1008 115.267 49.1482 115.207C49.1956 115.147 49.2649 115.108 49.341 115.099L52.6875 114.238C52.7612 114.22 52.8389 114.232 52.9043 114.27C52.9696 114.309 53.0174 114.371 53.0376 114.444C53.0477 114.483 53.0497 114.523 53.0435 114.562C53.0372 114.602 53.0228 114.639 53.0012 114.673C52.9796 114.706 52.9513 114.735 52.918 114.757C52.8847 114.779 52.8473 114.793 52.808 114.8L49.4616 115.661L49.4099 115.673Z" fill="#263238"/>
<path d="M55.8158 119.335C55.7127 119.344 55.6089 119.344 55.5058 119.335C55.4297 119.322 55.3615 119.281 55.3163 119.218C55.2711 119.156 55.2526 119.078 55.2647 119.002C55.2769 118.926 55.3188 118.857 55.3813 118.812C55.4437 118.767 55.5215 118.748 55.5977 118.761C55.9532 118.812 56.3148 118.725 56.6084 118.518C56.9019 118.311 57.105 117.999 57.1762 117.647C57.2278 117.492 57.245 117.372 57.2106 117.32C57.1762 117.268 56.9121 117.159 56.6768 117.096C56.3028 117.023 55.9463 116.878 55.6264 116.671C55.1624 116.38 54.77 115.987 54.4784 115.523C54.4458 115.455 54.4408 115.377 54.4643 115.306C54.4878 115.234 54.5381 115.174 54.6046 115.139C54.6724 115.105 54.7509 115.099 54.823 115.122C54.895 115.146 54.9548 115.197 54.9892 115.265C55.2439 115.653 55.5786 115.981 55.9708 116.229C56.2349 116.395 56.5265 116.511 56.8318 116.574C57.2049 116.666 57.5607 116.757 57.7272 117.073C57.7835 117.196 57.8127 117.331 57.8127 117.466C57.8127 117.602 57.7835 117.736 57.7272 117.859C57.6132 118.28 57.3647 118.652 57.0196 118.919C56.6745 119.185 56.2517 119.331 55.8158 119.335V119.335Z" fill="#263238"/>
<path d="M53.956 121.814H53.7264C53.3725 121.786 53.0213 121.731 52.676 121.648C52.6029 121.628 52.5405 121.58 52.502 121.514C52.4634 121.449 52.4518 121.371 52.4694 121.298C52.4787 121.261 52.4952 121.227 52.5179 121.196C52.5406 121.166 52.569 121.141 52.6015 121.122C52.6341 121.102 52.6701 121.09 52.7075 121.085C52.7449 121.079 52.783 121.082 52.8195 121.091C53.1325 121.168 53.4512 121.22 53.7724 121.246C55.2131 121.361 57.3828 120.098 57.4 120.098C57.4327 120.078 57.469 120.066 57.5067 120.06C57.5444 120.055 57.5829 120.057 57.6197 120.067C57.6566 120.076 57.6912 120.093 57.7215 120.116C57.7517 120.139 57.7771 120.168 57.7961 120.201C57.8338 120.267 57.844 120.345 57.8247 120.418C57.8053 120.491 57.7579 120.553 57.6928 120.592C57.6239 120.632 55.5632 121.814 53.956 121.814Z" fill="#263238"/>
<path d="M52.4694 116.379C52.7334 116.792 52.7449 117.257 52.4694 117.418C52.1938 117.578 51.7978 117.372 51.5337 116.964C51.2697 116.557 51.264 116.086 51.5337 115.925C51.8035 115.764 52.234 115.948 52.4694 116.379Z" fill="#263238"/>
<path d="M56.252 114.588C56.5161 115.001 56.5218 115.466 56.252 115.627C55.9822 115.787 55.5862 115.581 55.3221 115.173C55.0581 114.766 55.0524 114.295 55.3221 114.134C55.5919 113.973 55.9937 114.174 56.252 114.588Z" fill="#263238"/>
<path d="M54.0479 113.83C54.0016 113.83 53.9561 113.818 53.9158 113.796C53.8823 113.779 53.8525 113.755 53.8282 113.726C53.804 113.698 53.7856 113.665 53.7744 113.629C53.7632 113.593 53.7592 113.555 53.7628 113.518C53.7664 113.48 53.7775 113.444 53.7953 113.411C54.0766 112.871 54.8974 111.999 55.965 112.527C56.0335 112.561 56.0859 112.62 56.1107 112.692C56.1354 112.764 56.1305 112.843 56.097 112.912C56.0635 112.98 56.0042 113.033 55.9321 113.057C55.86 113.082 55.781 113.077 55.7125 113.044C54.8916 112.636 54.3578 113.572 54.3004 113.681C54.2752 113.726 54.2385 113.763 54.1942 113.789C54.1498 113.816 54.0994 113.83 54.0479 113.83Z" fill="#263238"/>
<path d="M43.9282 115.116C43.9282 115.116 50.9253 114.106 51.5165 112.82C52.1077 111.534 51.0458 111.574 51.0458 111.574C51.0458 111.574 57.687 111.81 58.3988 109.795C59.1105 107.78 56.0282 106.925 55.0811 106.925H53.6575C53.6575 106.925 53.3017 103.957 49.8577 104.669C46.4137 105.381 39.7782 109.892 38.9517 112.498C38.1251 115.104 36.2194 115.942 37.6429 119.019C39.0665 122.096 42.9811 124.598 42.9811 124.598C42.9811 124.598 42.4071 122.342 43.5551 122.222C44.7031 122.101 46.7581 122.934 47.1139 122.934C47.4698 122.934 48.5375 121.987 47.9462 121.395C47.355 120.804 46.7581 120.442 46.6433 120.087C46.5285 119.731 47.2173 118.548 46.7581 117.481C46.2989 116.413 43.9282 115.116 43.9282 115.116Z" fill="#263238"/>
<path d="M42.9811 124.891C42.9263 124.89 42.8727 124.874 42.8261 124.845C42.6654 124.742 38.8081 122.274 37.3846 119.145C36.3399 116.889 36.9943 115.736 37.7462 114.404C38.1248 113.776 38.4365 113.111 38.6761 112.418C39.5371 109.714 46.3161 105.117 49.8002 104.382C50.2894 104.244 50.8024 104.211 51.3051 104.287C51.8078 104.362 52.2888 104.543 52.7162 104.818C53.2989 105.27 53.7051 105.912 53.8642 106.632H55.104C55.8789 106.632 57.7272 107.091 58.4791 108.159C58.657 108.405 58.7698 108.691 58.807 108.993C58.8441 109.294 58.8044 109.599 58.6915 109.881C58.0773 111.603 53.8986 111.85 51.97 111.861C52.0419 112.224 51.9829 112.6 51.8035 112.923C51.2639 114.1 46.8097 114.955 44.7835 115.282C45.5526 115.77 46.7236 116.608 47.0795 117.377C47.3286 118.079 47.3286 118.845 47.0795 119.547C47.0288 119.7 46.996 119.858 46.9819 120.018C47.1402 120.239 47.3341 120.433 47.5559 120.592C47.7568 120.764 47.9807 120.953 48.2045 121.166C48.3353 121.296 48.4226 121.464 48.4545 121.646C48.4863 121.827 48.4612 122.015 48.3825 122.182C48.2764 122.435 48.1111 122.66 47.9004 122.837C47.6897 123.014 47.4397 123.137 47.1713 123.198C46.8796 123.16 46.5928 123.091 46.3161 122.991C45.4577 122.679 44.5543 122.508 43.6412 122.486C43.5785 122.49 43.5175 122.508 43.4628 122.538C43.4081 122.569 43.3612 122.612 43.3255 122.664C43.0557 123.054 43.1648 123.996 43.3255 124.501C43.3417 124.556 43.3399 124.616 43.3203 124.67C43.3007 124.725 43.2644 124.772 43.2165 124.805C43.1861 124.836 43.1492 124.859 43.1085 124.874C43.0678 124.889 43.0243 124.895 42.9811 124.891V124.891ZM50.8621 104.853C50.5457 104.855 50.2303 104.89 49.9208 104.956C46.6375 105.639 40.0193 110.088 39.2214 112.59C38.9741 113.322 38.6468 114.025 38.2456 114.685C37.5166 115.982 36.9886 116.918 37.907 118.91C38.9574 121.206 41.4543 123.169 42.5736 123.973C42.4716 123.425 42.5565 122.859 42.8147 122.365C42.8969 122.245 43.0052 122.145 43.1314 122.073C43.2576 122 43.3985 121.957 43.5436 121.946C44.5231 121.956 45.4937 122.133 46.4136 122.469C46.6408 122.545 46.8728 122.607 47.1082 122.652C47.4215 122.517 47.6704 122.266 47.8027 121.952C47.8294 121.894 47.8377 121.83 47.8264 121.767C47.8151 121.704 47.7848 121.647 47.7396 121.602C47.5215 121.39 47.3091 121.206 47.1197 121.028C46.7973 120.811 46.5364 120.514 46.362 120.167C46.3373 119.902 46.3829 119.634 46.494 119.392C46.7084 118.817 46.7245 118.187 46.5399 117.601C46.1783 116.798 44.4506 115.713 43.8134 115.363C43.7604 115.335 43.7177 115.291 43.6918 115.237C43.6659 115.183 43.6583 115.123 43.6699 115.064C43.681 115.005 43.7101 114.95 43.7532 114.908C43.7964 114.866 43.8515 114.838 43.911 114.829C46.781 114.421 50.9138 113.48 51.2812 112.682C51.4993 112.2 51.4304 112.016 51.3902 111.959C51.3597 111.925 51.3227 111.897 51.2813 111.877C51.2399 111.857 51.1949 111.846 51.1491 111.844H51.0573C50.9812 111.844 50.9082 111.814 50.8544 111.76C50.8005 111.706 50.7703 111.633 50.7703 111.557C50.7703 111.481 50.8005 111.408 50.8544 111.354C50.9082 111.3 50.9812 111.27 51.0573 111.27H51.1951C53.0548 111.327 57.6411 111.144 58.1577 109.68C58.2336 109.482 58.2567 109.268 58.2244 109.059C58.1922 108.849 58.1059 108.652 57.974 108.486C57.3369 107.585 55.6378 107.206 55.0696 107.206H53.6575C53.587 107.207 53.5188 107.181 53.4658 107.134C53.4129 107.088 53.379 107.023 53.3705 106.953C53.262 106.29 52.9074 105.691 52.3775 105.277C51.9292 104.981 51.3992 104.832 50.8621 104.853V104.853Z" fill="#263238"/>
<path d="M54.685 185.976C54.634 185.988 54.581 185.988 54.53 185.976L48.6178 182.532C48.585 182.513 48.5563 182.488 48.5332 182.458C48.5101 182.428 48.4931 182.394 48.4833 182.357C48.4734 182.321 48.4709 182.283 48.4757 182.245C48.4806 182.208 48.4928 182.172 48.5116 182.139C48.5305 182.106 48.5556 182.077 48.5855 182.054C48.6155 182.031 48.6497 182.014 48.6862 182.004C48.7227 181.994 48.7608 181.992 48.7983 181.997C48.8358 182.002 48.872 182.014 48.9048 182.033L54.8285 185.477C54.8939 185.516 54.9417 185.579 54.962 185.653C54.9823 185.727 54.9735 185.805 54.9376 185.873C54.907 185.909 54.8681 185.938 54.8241 185.956C54.78 185.974 54.7323 185.981 54.685 185.976V185.976Z" fill="#263238"/>
<path d="M69.1957 184.903C69.1415 184.905 69.0878 184.892 69.041 184.864C68.9942 184.836 68.9564 184.796 68.9322 184.747C68.9079 184.699 68.8982 184.644 68.9042 184.59C68.9102 184.536 68.9317 184.485 68.9661 184.443L72.5536 179.765C72.5756 179.733 72.604 179.705 72.6371 179.684C72.6701 179.663 72.7071 179.649 72.7458 179.643C72.7845 179.637 72.824 179.639 72.862 179.648C72.9 179.658 72.9356 179.675 72.9666 179.699C72.9976 179.723 73.0234 179.753 73.0423 179.788C73.0613 179.822 73.073 179.86 73.0768 179.899C73.0806 179.938 73.0764 179.977 73.0644 180.014C73.0524 180.052 73.0329 180.086 73.0071 180.115L69.4196 184.794C69.3934 184.828 69.3596 184.856 69.3207 184.875C69.2818 184.894 69.239 184.903 69.1957 184.903V184.903Z" fill="#263238"/>
<path d="M60.0175 124.179C59.5016 124.651 58.9401 125.07 58.3414 125.431C57.6928 125.758 57.5263 125.901 57.9281 126.36C58.3299 126.82 60.2241 126.269 60.2241 126.269L60.0175 124.179Z" fill="white"/>
<path d="M58.6226 126.854C58.4598 126.872 58.2951 126.856 58.1383 126.809C57.9815 126.762 57.8359 126.683 57.7099 126.578C57.6149 126.492 57.5407 126.385 57.493 126.266C57.4453 126.146 57.4253 126.018 57.4344 125.89C57.4918 125.585 57.7788 125.419 58.2151 125.201C58.7877 124.851 59.3258 124.447 59.8223 123.995C59.8604 123.959 59.9083 123.934 59.9602 123.924C60.0121 123.914 60.0658 123.919 60.115 123.938C60.1646 123.956 60.2082 123.988 60.2406 124.029C60.2731 124.071 60.2932 124.121 60.2987 124.173L60.534 126.263C60.5398 126.33 60.5225 126.398 60.485 126.454C60.4474 126.51 60.3919 126.552 60.3274 126.573C59.7728 126.736 59.2002 126.831 58.6226 126.854V126.854ZM57.974 125.976C58.0163 126.045 58.0643 126.11 58.1175 126.171C58.2552 126.326 59.0761 126.263 59.9141 126.05L59.7649 124.753C59.3585 125.107 58.9183 125.421 58.4504 125.689C58.2788 125.761 58.1184 125.858 57.974 125.976V125.976Z" fill="#263238"/>
<path d="M67.3015 128.404C66.9672 128.6 66.5868 128.703 66.1994 128.703C65.812 128.703 65.4316 128.6 65.0974 128.404C64.4254 128.082 63.7854 127.698 63.1859 127.256C63.032 127.701 62.7626 128.097 62.4053 128.404C61.9987 128.633 61.5592 128.797 61.1023 128.892C60.6112 128.501 60.1816 128.038 59.828 127.52C59.4594 126.72 59.2844 125.845 59.3172 124.966C59.3172 124.317 61.9174 122.67 61.9174 122.67L60.6144 122.509C60.6144 122.509 58.9842 123.485 58.4906 123.812C57.997 124.139 57.4804 124.46 57.2221 123.726C56.8375 122.652 60.8727 120.902 60.8727 120.902C60.8727 120.902 63.1687 120.741 64.1388 120.741C65.1088 120.741 69.7066 127.33 70.1141 127.738C70.5216 128.146 81.1234 143.506 82.214 145.136C83.3046 146.766 82.6216 150.572 81.9385 152.07C81.2554 153.568 78.5404 153.293 77.3178 153.155C76.0952 153.017 73.9197 148.534 73.6499 147.449C73.3802 146.364 67.3015 128.404 67.3015 128.404Z" fill="white"/>
<path d="M79.0111 153.58C78.4354 153.573 77.8606 153.534 77.2891 153.465C75.8196 153.304 73.604 148.477 73.3687 147.541C73.1333 146.605 67.9501 131.216 67.158 128.811C66.8078 128.945 66.4326 129 66.0588 128.973C65.685 128.947 65.3216 128.838 64.994 128.656C64.4193 128.375 63.8633 128.057 63.3294 127.704C63.1671 128.074 62.912 128.396 62.5889 128.639C62.1527 128.893 61.6776 129.074 61.1826 129.173C61.1416 129.182 61.0992 129.181 61.0585 129.171C61.0178 129.161 60.9798 129.142 60.9473 129.116C60.422 128.703 59.9665 128.209 59.5984 127.652C59.2006 126.826 59.0039 125.917 59.0244 125C59.0244 124.426 60.1724 123.49 61.0965 122.882L60.6718 122.825C60.3274 123.031 59.0588 123.795 58.6456 124.07C58.4926 124.212 58.311 124.319 58.1129 124.385C57.9148 124.45 57.7049 124.472 57.4976 124.449C57.3688 124.396 57.254 124.315 57.1623 124.21C57.0707 124.105 57.0046 123.981 56.9695 123.846C56.5275 122.612 59.7706 121.097 60.7808 120.666C60.8108 120.658 60.8427 120.658 60.8727 120.666C60.9645 120.666 63.1687 120.5 64.156 120.5C64.8964 120.5 66.5782 122.566 69.4195 126.383C69.8443 126.957 70.2461 127.497 70.3322 127.583C70.8029 128.054 81.7376 143.931 82.4666 145.027C83.6146 146.749 82.9143 150.704 82.2197 152.236C81.6917 153.333 80.2739 153.58 79.0111 153.58ZM67.3015 128.117C67.3299 128.111 67.3592 128.111 67.3876 128.117C67.4303 128.131 67.469 128.155 67.5009 128.187C67.5328 128.219 67.5568 128.258 67.5713 128.301C67.8181 129.035 73.6557 146.301 73.9254 147.392C74.2354 148.637 76.3879 152.776 77.3694 152.885C78.351 152.994 81.089 153.298 81.6974 151.961C82.369 150.474 82.9946 146.795 81.9901 145.308C80.9053 143.684 70.4011 128.461 69.9361 127.95C69.8271 127.841 69.5458 127.468 68.9718 126.688C67.9444 125.316 64.8275 121.126 64.1617 121.039C63.2892 121.039 61.2917 121.177 60.9703 121.2C59.1909 121.975 57.3483 123.163 57.5263 123.64C57.5779 123.783 57.6353 123.869 57.6927 123.892C57.7501 123.915 58.1806 123.709 58.37 123.582C58.8579 123.255 60.4307 122.314 60.4996 122.274C60.5538 122.238 60.6192 122.224 60.6833 122.233L61.9862 122.394C62.0447 122.403 62.0992 122.429 62.143 122.469C62.1869 122.509 62.2182 122.561 62.2331 122.618C62.2458 122.675 62.2405 122.736 62.2179 122.79C62.1953 122.844 62.1565 122.891 62.1068 122.922C60.821 123.726 59.6673 124.679 59.6386 124.96C59.6045 125.792 59.7698 126.621 60.1207 127.376C60.4224 127.827 60.79 128.229 61.2113 128.57C61.5876 128.483 61.9492 128.342 62.2847 128.151C62.5877 127.882 62.8169 127.541 62.9506 127.158C62.9659 127.115 62.991 127.076 63.0239 127.044C63.0567 127.013 63.0964 126.989 63.14 126.975C63.1841 126.963 63.2304 126.961 63.2751 126.97C63.3199 126.979 63.362 126.998 63.3983 127.026C63.9819 127.453 64.6046 127.824 65.258 128.134C65.5478 128.304 65.8778 128.394 66.2138 128.394C66.5498 128.394 66.8797 128.304 67.1695 128.134C67.2115 128.118 67.2567 128.112 67.3015 128.117Z" fill="#263238"/>
<path d="M60.1552 128.082C60.0859 128.082 60.019 128.057 59.9664 128.012C59.9139 127.966 59.8791 127.904 59.8682 127.836C59.7362 126.82 59.6386 125.54 59.9485 125.23C60.2585 124.92 62.5143 123.335 62.7726 123.158C62.8028 123.132 62.8381 123.112 62.8762 123.101C62.9143 123.089 62.9543 123.086 62.9938 123.091C63.0333 123.095 63.0714 123.108 63.1056 123.129C63.1398 123.149 63.1695 123.176 63.1926 123.208C63.2158 123.241 63.232 123.278 63.2402 123.317C63.2483 123.355 63.2483 123.396 63.2401 123.435C63.232 123.474 63.2158 123.51 63.1926 123.543C63.1694 123.575 63.1398 123.602 63.1055 123.622C62.1412 124.3 60.5455 125.442 60.3561 125.631C60.2899 126.342 60.3169 127.058 60.4364 127.761C60.4462 127.836 60.4257 127.912 60.3795 127.973C60.3332 128.033 60.2649 128.072 60.1896 128.082H60.1552Z" fill="#263238"/>
<path d="M61.1023 129.179C61.0276 129.177 60.9563 129.147 60.903 129.095C60.8496 129.043 60.8182 128.972 60.8153 128.898L60.7292 126.028C60.7273 125.978 60.7378 125.929 60.7599 125.885C60.782 125.841 60.8149 125.803 60.8555 125.775L63.6165 123.978C63.6804 123.936 63.7583 123.922 63.8332 123.937C63.908 123.953 63.9735 123.998 64.0154 124.062C64.0572 124.126 64.072 124.203 64.0564 124.278C64.0408 124.353 63.9961 124.419 63.9322 124.461L61.3032 126.183L61.3893 128.886C61.3909 128.924 61.385 128.961 61.3719 128.997C61.3589 129.032 61.339 129.065 61.3135 129.092C61.2879 129.12 61.2571 129.143 61.2228 129.158C61.1886 129.174 61.1515 129.183 61.1138 129.185L61.1023 129.179Z" fill="#263238"/>
<path d="M61.9174 122.98C61.8685 122.981 61.8202 122.968 61.7778 122.944C61.7353 122.92 61.7002 122.885 61.6763 122.842C61.6556 122.811 61.6415 122.775 61.635 122.738C61.6284 122.701 61.6294 122.663 61.638 122.627C61.6466 122.59 61.6626 122.556 61.685 122.526C61.7073 122.496 61.7357 122.47 61.7682 122.452L62.6751 121.878C62.7398 121.837 62.8179 121.824 62.8921 121.841C62.9664 121.859 63.0308 121.905 63.0711 121.969C63.1115 122.034 63.1245 122.112 63.1072 122.186C63.09 122.261 63.044 122.325 62.9793 122.365L62.0724 122.939C62.026 122.968 61.9719 122.982 61.9174 122.98V122.98Z" fill="#263238"/>
<path d="M63.1859 127.549C63.1189 127.552 63.0532 127.529 63.0023 127.485L62.5431 127.101L62.147 127.353C62.0823 127.394 62.0042 127.407 61.9299 127.39C61.8557 127.372 61.7913 127.326 61.7509 127.262C61.7106 127.197 61.6976 127.119 61.7148 127.045C61.7321 126.97 61.7781 126.906 61.8428 126.866L62.4168 126.504C62.4663 126.469 62.5254 126.45 62.5861 126.45C62.6468 126.45 62.7059 126.469 62.7554 126.504L63.3754 127.02C63.4332 127.07 63.4691 127.141 63.4756 127.217C63.482 127.293 63.4584 127.369 63.4098 127.428C63.3837 127.463 63.35 127.492 63.3113 127.513C63.2726 127.534 63.2298 127.546 63.1859 127.549V127.549Z" fill="#263238"/>
<path d="M35.4732 138.535L25.8472 157.971L37.5281 162.643L41.1042 151.077L35.4732 138.535Z" fill="#3E6CF7"/>
<path d="M37.5281 162.93C37.4942 162.938 37.4588 162.938 37.4248 162.93L25.7439 158.258C25.7065 158.244 25.6724 158.222 25.6438 158.195C25.6151 158.167 25.5925 158.134 25.5775 158.097C25.562 158.061 25.554 158.022 25.554 157.982C25.554 157.943 25.562 157.904 25.5775 157.867L35.2092 138.432C35.2307 138.381 35.2678 138.337 35.3152 138.309C35.3626 138.28 35.4179 138.267 35.4732 138.271C35.5273 138.273 35.5797 138.29 35.6243 138.321C35.669 138.351 35.7042 138.394 35.7258 138.443L41.3625 150.962C41.3881 151.029 41.3881 151.102 41.3625 151.169L37.8037 162.729C37.7916 162.766 37.7721 162.801 37.7465 162.83C37.7209 162.86 37.6895 162.884 37.6544 162.901C37.6146 162.919 37.5717 162.929 37.5281 162.93V162.93ZM26.2433 157.85L37.3445 162.287L40.7885 151.123L35.456 139.241L26.2433 157.85Z" fill="#263238"/>
<path d="M46.1611 173.606L42.8434 170.162L33.9751 161.237L26.6049 158.424C26.6049 158.424 24.7107 162.631 24.7107 163.372C24.7107 164.112 27.6783 167.275 28.413 167.694C29.1477 168.113 40.157 173.434 40.157 173.434C40.2184 173.508 40.2759 173.584 40.3292 173.664L41.4772 175.185C41.4772 175.185 41.2476 177.395 41.8561 178.388C41.8561 178.388 41.1443 178.227 41.3969 178.927C41.6155 179.205 41.8703 179.452 42.1546 179.662C42.5736 179.978 44.8925 180.718 45.3116 180.506C45.7306 180.293 46.494 178.514 46.494 178.514C46.494 178.514 47.2632 178.571 47.4698 178.256C47.7804 177.874 48.114 177.512 48.4686 177.171L46.1611 173.606Z" fill="white"/>
<path d="M45.0762 180.844C43.9934 180.74 42.9419 180.422 41.9824 179.909C41.6676 179.674 41.3858 179.398 41.1443 179.088C41.1287 179.064 41.1153 179.039 41.1041 179.013C41.0443 178.895 41.0185 178.763 41.0296 178.631C41.0408 178.5 41.0885 178.373 41.1673 178.267C41.2307 178.2 41.3094 178.148 41.3969 178.118C41.139 177.185 41.0572 176.211 41.1558 175.248L40.0996 173.813L39.9734 173.641C39.009 173.17 28.987 168.326 28.2695 167.901C27.552 167.476 24.4237 164.267 24.4237 163.309C24.4237 162.545 26.0194 158.952 26.3409 158.24C26.3722 158.174 26.4274 158.122 26.4954 158.094C26.5635 158.066 26.6394 158.065 26.7082 158.091L34.0784 160.932C34.1144 160.95 34.1473 160.973 34.176 161.001L43.05 169.967L46.3677 173.411C46.3827 173.423 46.3945 173.439 46.4022 173.457L48.6982 177.004C48.7343 177.06 48.75 177.126 48.7427 177.192C48.7354 177.258 48.7054 177.32 48.658 177.366C48.3177 177.691 47.9976 178.036 47.6994 178.399C47.568 178.539 47.4069 178.647 47.228 178.715C47.0492 178.784 46.8571 178.811 46.6662 178.795C46.3907 179.432 45.8511 180.575 45.4264 180.787C45.3148 180.83 45.1956 180.849 45.0762 180.844V180.844ZM41.6322 178.767C41.8354 179.021 42.0686 179.251 42.3268 179.45C42.7113 179.742 44.8409 180.385 45.1968 180.265C45.6391 179.698 45.9879 179.064 46.23 178.388C46.2536 178.332 46.2938 178.285 46.3452 178.253C46.3966 178.221 46.4566 178.206 46.517 178.21C46.766 178.246 47.0201 178.2 47.2402 178.078C47.5047 177.735 47.7944 177.413 48.1069 177.113L45.92 173.784L42.6195 170.369L33.8143 161.483L26.7541 158.757C26.0309 160.381 24.9977 162.872 24.9977 163.349C24.9977 163.825 27.7931 166.988 28.5565 167.424C29.3199 167.861 40.1685 173.101 40.2833 173.164C40.3199 173.181 40.3516 173.206 40.3752 173.239C40.3752 173.239 40.4555 173.337 40.5646 173.492L41.7126 175.001C41.7548 175.059 41.7733 175.131 41.7642 175.202C41.7068 175.776 41.6494 177.498 42.1086 178.227C42.1386 178.275 42.1535 178.331 42.1515 178.388C42.1496 178.445 42.1308 178.5 42.0976 178.546C42.0644 178.592 42.0183 178.627 41.9651 178.647C41.9119 178.667 41.854 178.671 41.7987 178.658C41.7416 178.649 41.6836 178.649 41.6265 178.658C41.6265 178.658 41.6093 178.692 41.6322 178.767Z" fill="#263238"/>
<path d="M42.6711 179.565C42.6313 179.565 42.5919 179.557 42.5553 179.541C42.5187 179.525 42.4859 179.502 42.4588 179.473L41.6207 178.56C41.569 178.504 41.5417 178.429 41.5449 178.353C41.5482 178.276 41.5816 178.204 41.638 178.152C41.6943 178.101 41.7689 178.073 41.8453 178.077C41.9217 178.08 41.9937 178.113 42.0455 178.17L42.8835 179.088C42.9103 179.114 42.9315 179.146 42.946 179.18C42.9605 179.215 42.9679 179.252 42.9679 179.289C42.9679 179.326 42.9605 179.363 42.946 179.398C42.9315 179.432 42.9103 179.464 42.8835 179.49C42.855 179.516 42.8215 179.536 42.785 179.549C42.7485 179.562 42.7098 179.567 42.6711 179.565V179.565Z" fill="#263238"/>
<path d="M38.2973 160.163L27.0584 155.525L25.8472 157.971L37.5281 162.643L38.2973 160.163Z" fill="#263238"/>
<path d="M37.5281 162.93C37.4942 162.938 37.4588 162.938 37.4248 162.93L25.7439 158.258C25.7065 158.244 25.6724 158.222 25.6438 158.195C25.6151 158.167 25.5925 158.134 25.5775 158.097C25.562 158.061 25.554 158.022 25.554 157.982C25.554 157.943 25.562 157.904 25.5775 157.867L26.7943 155.416C26.8255 155.351 26.8804 155.301 26.9477 155.275C27.015 155.25 27.0895 155.251 27.156 155.279L38.3949 159.922C38.4603 159.95 38.513 160.002 38.5427 160.066C38.5724 160.131 38.577 160.204 38.5556 160.272L37.7922 162.752C37.7801 162.789 37.7606 162.824 37.735 162.853C37.7094 162.883 37.6781 162.907 37.6429 162.924C37.6053 162.933 37.5665 162.935 37.5281 162.93ZM26.2433 157.85L37.3445 162.287L37.9185 160.358L27.1732 155.921L26.2433 157.85Z" fill="#263238"/>
</svg>
